<svg width="167" height="103" fill="none" xmlns="http://www.w3.org/2000/svg"><path fill-rule="evenodd" clip-rule="evenodd" d="M46 85h83a7 7 0 100-14s-6-3.134-6-7 3.952-7 8.826-7H142a7 7 0 100-14h-22a7 7 0 100-14h40a7 7 0 100-14H62a7 7 0 100 14H22a7 7 0 100 14h25a7 7 0 110 14H7a7 7 0 100 14h39a7 7 0 100 14zm107-35a7 7 0 1014 0 7 7 0 00-14 0z" fill="#F3F7FF"/><path fill-rule="evenodd" clip-rule="evenodd" d="M106.672 14l9.302 67.843.835 6.806a4 4 0 01-3.482 4.458l-58.56 7.19a4 4 0 01-4.458-3.483l-9.016-73.427a2 2 0 011.762-2.232l4.859-.545m3.928-.44l4.587-.515-4.587.515z" fill="#fff"/><path d="M107.91 13.83a1.25 1.25 0 10-2.477.34l2.477-.34zm8.064 68.013l1.24-.153-.001-.008-.001-.01-1.238.17zm.835 6.806l1.241-.152-1.241.152zm-3.482 4.458l.152 1.24-.152-1.24zm-58.56 7.19l.152 1.241-.152-1.241zm-4.458-3.483l1.24-.152-1.24.152zm-7.254-75.658l.14 1.242-.14-1.242zm4.998.697a1.25 1.25 0 10-.279-2.485l.279 2.485zm3.65-2.925a1.25 1.25 0 00.278 2.484l-.278-2.484zm4.865 1.97a1.25 1.25 0 00-.278-2.485l.279 2.485zm48.865-6.728l9.302 67.843 2.477-.34-9.302-67.843-2.477.34zm9.3 67.825l.836 6.806 2.481-.304-.836-6.807-2.481.305zm.836 6.806a2.75 2.75 0 01-2.395 3.065l.305 2.481a5.25 5.25 0 004.571-5.85l-2.481.304zm-2.395 3.065l-58.56 7.19.305 2.482 58.56-7.19-.305-2.482zm-58.56 7.19a2.75 2.75 0 01-3.064-2.394l-2.482.305a5.25 5.25 0 005.85 4.571l-.304-2.482zm-3.064-2.394l-9.016-73.428-2.482.305 9.016 73.428 2.482-.305zm-9.016-73.428a.75.75 0 01.653-.835l-.305-2.482a3.25 3.25 0 00-2.83 3.622l2.482-.305zm.653-.835l.008-.001-.28-2.485-.033.004.305 2.482zm.008-.001l4.858-.545-.279-2.485-4.858.545.279 2.485zm8.786-.986l4.587-.514-.278-2.485-4.587.515.278 2.484z" fill="#75A4FE"/><path fill-rule="evenodd" clip-rule="evenodd" d="M104.14 18.27l8.42 61.483.757 6.168c.244 1.987-1.15 3.794-3.114 4.035l-52.442 6.439c-1.963.24-3.753-1.175-3.997-3.162l-8.15-66.376a2 2 0 011.742-2.23l6.487-.796" fill="#E8F0FE"/><path d="M60.922 4a2.75 2.75 0 012.75-2.75h45.557c.729 0 1.428.29 1.944.805l13.443 13.435a2.75 2.75 0 01.806 1.945V80a2.75 2.75 0 01-2.75 2.75h-59a2.75 2.75 0 01-2.75-2.75V4z" fill="#fff" stroke="#75A4FE" stroke-width="2.5"/><path d="M109.672 2.403V14a3 3 0 003 3h7.933" stroke="#75A4FE" stroke-width="2.5" stroke-linecap="round" stroke-linejoin="round"/><path d="M71.672 14.5a2.5 2.5 0 00-2.5 2.5h2.5v-2.5zm26 0h-26V17h26v-2.5zm2.5 2.5a2.5 2.5 0 00-2.5-2.5V17h2.5zm-2.5 2.5a2.5 2.5 0 002.5-2.5h-2.5v2.5zm-26 0h26V17h-26v2.5zm-2.5-2.5a2.5 2.5 0 002.5 2.5V17h-2.5zm2.5 9.5a2.5 2.5 0 00-2.5 2.5h2.5v-2.5zm43 0h-43V29h43v-2.5zm2.5 2.5a2.5 2.5 0 00-2.5-2.5V29h2.5zm-2.5 2.5a2.5 2.5 0 002.5-2.5h-2.5v2.5zm-43 0h43V29h-43v2.5zm-2.5-2.5a2.5 2.5 0 002.5 2.5V29h-2.5zm2.5 13v-2.5a2.5 2.5 0 00-2.5 2.5h2.5zm0 0h-2.5a2.5 2.5 0 002.5 2.5V42zm43 0h-43v2.5h43V42zm0 0v2.5a2.5 2.5 0 002.5-2.5h-2.5zm0 0h2.5a2.5 2.5 0 00-2.5-2.5V42zm-43 0h43v-2.5h-43V42zm0 10.5a2.5 2.5 0 00-2.5 2.5h2.5v-2.5zm43 0h-43V55h43v-2.5zm2.5 2.5a2.5 2.5 0 00-2.5-2.5V55h2.5zm-2.5 2.5a2.5 2.5 0 002.5-2.5h-2.5v2.5zm-43 0h43V55h-43v2.5zm-2.5-2.5a2.5 2.5 0 002.5 2.5V55h-2.5zm2.5 13v-2.5a2.5 2.5 0 00-2.5 2.5h2.5zm0 0h-2.5a2.5 2.5 0 002.5 2.5V68zm26 0h-26v2.5h26V68zm0 0v2.5a2.5 2.5 0 002.5-2.5h-2.5zm0 0h2.5a2.5 2.5 0 00-2.5-2.5V68zm-26 0h26v-2.5h-26V68z" fill="#A4C3FE"/></svg>