<svg width="30" height="30" fill="none" xmlns="http://www.w3.org/2000/svg"><path fill-rule="evenodd" clip-rule="evenodd" d="M29.281 13.596a2.308 2.308 0 00.542-2.302c-.255-.82-.916-1.406-1.733-1.528l-7.246-1.102a.958.958 0 01-.714-.542l-3.24-6.87C16.528.48 15.788 0 14.966 0c-.822 0-1.56.48-1.926 1.252L9.8 8.122a.95.95 0 01-.714.542L1.84 9.766c-.816.122-1.48.707-1.735 1.528a2.312 2.312 0 00.544 2.302l5.244 5.345c.223.23.325.558.272.879l-1.238 7.55a2.283 2.283 0 00.469 1.821c.641.797 1.756 1.039 2.648.546l6.48-3.564a.929.929 0 01.883 0l6.482 3.564c.313.174.65.263.998.263.632 0 1.235-.294 1.648-.809a2.28 2.28 0 00.468-1.821l-1.238-7.55c-.053-.321.05-.649.272-.879l5.244-5.345z" fill="#F7C84C"/><mask id="a" maskUnits="userSpaceOnUse" x="0" y="0" width="30" height="30"><path fill-rule="evenodd" clip-rule="evenodd" d="M29.281 13.596a2.308 2.308 0 00.542-2.302c-.255-.82-.916-1.406-1.733-1.528l-7.246-1.102a.958.958 0 01-.714-.542l-3.24-6.87C16.528.48 15.788 0 14.966 0c-.822 0-1.56.48-1.926 1.252L9.8 8.122a.95.95 0 01-.714.542L1.84 9.766c-.816.122-1.48.707-1.735 1.528a2.312 2.312 0 00.544 2.302l5.244 5.345c.223.23.325.558.272.879l-1.238 7.55a2.283 2.283 0 00.469 1.821c.641.797 1.756 1.039 2.648.546l6.48-3.564a.929.929 0 01.883 0l6.482 3.564c.313.174.65.263.998.263.632 0 1.235-.294 1.648-.809a2.28 2.28 0 00.468-1.821l-1.238-7.55c-.053-.321.05-.649.272-.879l5.244-5.345z" fill="#fff"/></mask><g mask="url(#a)"><path d="M30.974-5v50.376h-5.399V-5h5.399z" fill="#C5C5C5"/></g></svg>