<svg width="26" height="26" fill="none" xmlns="http://www.w3.org/2000/svg"><g fill="#28A845"><path fill-rule="evenodd" clip-rule="evenodd" d="M19.986 12.943a4.393 4.393 0 004.17-3.115l.788-2.639a1.39 1.39 0 00-.222-1.23 1.396 1.396 0 00-1.123-.557h-3.395V1.168a.279.279 0 00-.28-.278H6.07a.279.279 0 00-.279.278v4.234H2.396a1.39 1.39 0 00-1.336 1.79l.778 2.636a4.393 4.393 0 004.17 3.115 7.192 7.192 0 006.71 5.342v6.048H6.896a.279.279 0 100 .557h12.203a.279.279 0 100-.557h-5.823v-6.048a7.192 7.192 0 006.71-5.342zm3.613-6.984a.838.838 0 01.8 1.085l-.8 2.625a3.832 3.832 0 01-3.507 2.712c.07-.383.107-.772.112-1.161V5.959h3.395zm-3.953-.523v-3.99H6.349v3.99h13.297zM2.396 9.669l-.801-2.625a.834.834 0 01.8-1.085h3.396v5.26c0 .392.034.782.1 1.167A3.832 3.832 0 012.396 9.67zm3.953-3.677v5.228h-.003c.074 3.611 3.03 6.5 6.65 6.5 3.62 0 6.575-2.889 6.65-6.5V5.992H6.349z"/><path d="M24.157 9.828l.383.116v-.002l-.383-.114zm-4.171 3.115l-.003-.4-.306.002-.078.296.387.102zm4.958-5.754l.383.115-.383-.115zm-1.345-1.787v.4h.002l-.002-.4zm-3.395 0h-.4v.4h.4v-.4zm-14.413 0v.4h.4v-.4h-.4zm-3.395 0v-.4.4zm-1.119.56l.32.24-.32-.24zm-.218 1.23l.384-.113v-.002l-.384.115zm.779 2.636l-.384.113.001.003.383-.116zm4.17 3.115l.387-.102-.078-.296-.305-.002-.003.4zm6.71 5.342h.4v-.387l-.386-.013-.014.4zm0 6.048v.4h.4v-.4h-.4zm.558 0h-.4v.4h.4v-.4zm0-6.048l-.013-.4-.387.013v.387h.4zm11-11.986l-.323.237.322-.237zm-.677-.34v.4h.001l-.001-.4zm.8 1.085l-.38-.12-.002.004.383.116zm-.8 2.625l-.383-.116.383.116zm-3.507 2.712l-.393-.072-.09.492.5-.02-.017-.4zm.112-1.161l.4.005v-.005h-.4zm0-5.261v-.4h-.4v.4h.4zm-.558-4.512h.4v-.4h-.4v.4zm0 3.989v.4h.4v-.4h-.4zM6.349 1.446v-.4h-.4v.4h.4zm0 3.99h-.4v.4h.4v-.4zM1.595 7.044l.383-.116-.001-.004-.382.12zm.8 2.625l.384-.115v-.001l-.383.116zM1.72 6.3l-.322-.237.322.237zm.677-.34l-.001.4v-.4zm3.395 0h.4v-.4h-.4v.4zm0 5.26h-.4v.002l.4-.001zm.1 1.167l-.018.4.497.022-.084-.49-.395.068zm.458-1.166v.4h.4v-.4h-.4zm0-5.228v-.4h-.4v.4h.4zm-.003 5.228v-.4h-.408l.008.408.4-.008zm13.3 0l.4.008v-.008h-.4zm0-5.228h.4v-.4h-.4v.4zm4.128 3.72a3.993 3.993 0 01-3.791 2.83l.006.8a4.793 4.793 0 004.55-3.398l-.765-.232zm.786-2.637l-.786 2.639.766.228.787-2.638-.767-.229zm-.158-.876a.99.99 0 01.158.876l.767.228a1.79 1.79 0 00-.286-1.585l-.639.48zm-.801-.397a.996.996 0 01.801.397l.64-.481a1.796 1.796 0 00-1.445-.716l.004.8zm-3.397 0h3.395v-.8h-3.395v.8zm-.4-4.634v4.234h.8V1.168h-.8zm.12.122a.121.121 0 01-.12-.122h.8a.679.679 0 00-.68-.678v.8zm-13.854 0h13.855v-.8H6.07v.8zm.121-.122a.121.121 0 01-.121.122v-.8a.679.679 0 00-.679.678h.8zm0 4.234V1.168h-.8v4.234h.8zm-3.795.4H5.79v-.8H2.396v.8zm-.798.4a.996.996 0 01.798-.4v-.8c-.567 0-1.1.267-1.44.721l.642.479zm-.155.875a.99.99 0 01.155-.875l-.641-.479a1.79 1.79 0 00-.28 1.584l.766-.23zm.778 2.638l-.778-2.636-.767.226.778 2.636.767-.226zm3.79 2.828a3.993 3.993 0 01-3.79-2.831l-.766.232a4.793 4.793 0 004.55 3.399l.007-.8zm6.721 5.342a6.792 6.792 0 01-6.337-5.045l-.773.205a7.592 7.592 0 007.083 5.64l.027-.8zm.386 6.448v-6.048h-.8v6.048h.8zm-6.222.4h5.822v-.8H6.896v.8zm.12-.121a.121.121 0 01-.12.121v-.8a.679.679 0 00-.68.679h.8zm-.12-.122c.066 0 .12.054.12.122h-.8c0 .375.306.678.68.678v-.8zm12.203 0H6.896v.8h12.203v-.8zm-.121.122c0-.068.055-.122.12-.122v.8a.679.679 0 00.68-.678h-.8zm.12.121a.121.121 0 01-.12-.121h.8a.679.679 0 00-.68-.679v.8zm-5.822 0H19.1v-.8h-5.823v.8zm-.4-6.448v6.048h.8v-6.048h-.8zM19.6 12.84a6.792 6.792 0 01-6.336 5.044l.027.8a7.592 7.592 0 007.083-5.64l-.774-.204zm4.998-6.78a1.238 1.238 0 00-1-.502l.003.8c.14 0 .271.066.353.177l.644-.474zm.184 1.104c.119-.376.05-.786-.184-1.103l-.644.474a.434.434 0 01.065.388l.763.24zm-.8 2.621l.801-2.625-.765-.233-.8 2.625.765.233zM20.11 12.78a4.232 4.232 0 003.873-2.994l-.766-.233a3.432 3.432 0 01-3.14 2.428l.033.8zm-.305-1.565c-.005.367-.04.733-.105 1.094l.787.143c.073-.405.113-.816.118-1.227l-.8-.01zm0-5.256v5.26h.8V5.96h-.8zm3.795-.4h-3.395v.8h3.395v-.8zm-4.353-4.112v3.989h.8v-3.99h-.8zm-12.897.4h13.297v-.8H6.349v.8zm.4 3.589v-3.99h-.8v3.99h.8zm12.897-.4H6.349v.8h13.297v-.8zM1.212 7.16l.801 2.625.765-.233-.8-2.625-.766.233zm.185-1.1a1.234 1.234 0 00-.183 1.104l.763-.24a.434.434 0 01.064-.389l-.644-.474zm1-.502a1.238 1.238 0 00-1 .503l.644.474a.438.438 0 01.354-.177l.002-.8zm3.394 0H2.396v.8H5.79v-.8zm.4 5.66V5.96h-.8v5.26h.8zm.095 1.1a6.571 6.571 0 01-.095-1.1l-.8.002c0 .413.036.825.106 1.233l.789-.136zM2.013 9.785a4.232 4.232 0 003.86 3l.037-.798a3.432 3.432 0 01-3.131-2.433l-.766.231zm4.736 1.435V5.992h-.8v5.228h.8zm-.403.4h.003v-.8h-.003v.8zm6.65 5.7c-3.403 0-6.18-2.716-6.25-6.108l-.8.016c.079 3.83 3.213 6.892 7.05 6.892v-.8zm6.25-6.108c-.07 3.392-2.847 6.108-6.25 6.108v.8c3.837 0 6.97-3.062 7.05-6.892l-.8-.016zm0-5.22v5.228h.8V5.992h-.8zm-12.897.4h13.297v-.8H6.349v.8z"/></g></svg>