<svg width="23" height="25" fill="none" xmlns="http://www.w3.org/2000/svg"><path fill-rule="evenodd" clip-rule="evenodd" d="M2.2 13.937h4.644a.39.39 0 00.388-.387V9.68a.39.39 0 01.387-.387H14.2a.39.39 0 00.387-.387V4.26a.39.39 0 00-.387-.387H6.844a5.039 5.039 0 00-5.031 5.032v4.644a.39.39 0 00.387.387zm4.257-.775h-3.87V8.906a4.26 4.26 0 014.257-4.257h6.969v3.87H7.619c-.643 0-1.162.519-1.162 1.161v3.482z" fill="#28A845"/><path d="M2.587 13.162h-.25v.25h.25v-.25zm3.87 0v.25h.25v-.25h-.25zm7.356-8.513h.25v-.25h-.25v.25zm0 3.87v.25h.25v-.25h-.25zm-6.969 5.168H2.2v.5h4.644v-.5zm.138-.137a.14.14 0 01-.138.137v.5a.64.64 0 00.638-.637h-.5zm0-3.87v3.87h.5V9.68h-.5zm.637-.637a.64.64 0 00-.637.637h.5a.14.14 0 01.137-.137v-.5zm6.581 0H7.619v.5H14.2v-.5zm.137-.137a.14.14 0 01-.137.137v.5a.64.64 0 00.637-.637h-.5zm0-4.645v4.645h.5V4.26h-.5zm-.137-.137a.14.14 0 01.137.137h.5a.64.64 0 00-.637-.637v.5zm-7.356 0H14.2v-.5H6.844v.5zM2.063 8.906a4.789 4.789 0 014.781-4.782v-.5a5.289 5.289 0 00-5.281 5.282h.5zm0 4.644V8.906h-.5v4.644h.5zm.137.137a.14.14 0 01-.137-.137h-.5c0 .35.286.637.637.637v-.5zm.387-.275h3.87v-.5h-3.87v.5zm-.25-4.506v4.256h.5V8.906h-.5zm4.507-4.507a4.51 4.51 0 00-4.507 4.507h.5a4.01 4.01 0 014.007-4.007v-.5zm6.969 0H6.844v.5h6.969v-.5zm.25 4.12v-3.87h-.5v3.87h.5zm-6.444.25h6.194v-.5H7.619v.5zm-.912.911c0-.504.407-.912.912-.912v-.5c-.78 0-1.412.632-1.412 1.412h.5zm0 3.482V9.68h-.5v3.482h.5z" fill="#2BA745"/><path fill-rule="evenodd" clip-rule="evenodd" d="M14.195 10.063h2.325c.212 0 .387-.17.387-.387V3.482a.39.39 0 00-.387-.388h-2.325a.39.39 0 00-.387.388v6.194a.39.39 0 00.387.387zm1.937-.775h-1.55V3.87h1.55v5.42z" fill="#28A845"/><path d="M14.583 9.288h-.25v.25h.25v-.25zm1.55 0v.25h.25v-.25h-.25zm-1.55-5.419v-.25h-.25v.25h.25zm1.55 0h.25v-.25h-.25v.25zm.387 5.944h-2.325v.5h2.325v-.5zm.137-.137c0 .077-.06.137-.137.137v.5c.348 0 .637-.28.637-.637h-.5zm0-6.194v6.194h.5V3.482h-.5zm-.137-.138a.14.14 0 01.137.138h.5a.64.64 0 00-.637-.638v.5zm-2.325 0h2.325v-.5h-2.325v.5zm-.137.138a.14.14 0 01.137-.138v-.5a.64.64 0 00-.637.638h.5zm0 6.194V3.482h-.5v6.194h.5zm.137.137a.14.14 0 01-.137-.137h-.5c0 .35.287.637.637.637v-.5zm.388-.275h1.55v-.5h-1.55v.5zm-.25-5.669v5.42h.5v-5.42h-.5zm1.8-.25h-1.55v.5h1.55v-.5zm.25 5.67v-5.42h-.5v5.42h.5z" fill="#2BA745"/><path fill-rule="evenodd" clip-rule="evenodd" d="M16.52 9.288h5.031c.218 0 .388-.17.388-.387V4.257a.39.39 0 00-.388-.388H16.52a.39.39 0 00-.388.388V8.9a.39.39 0 00.388.387zm4.644-.77h-4.257v-3.87h4.257v3.87z" fill="#28A845"/><path d="M16.907 8.518h-.25v.25h.25v-.25zm4.257 0v.25h.25v-.25h-.25zm-4.257-3.87v-.25h-.25v.25h.25zm4.257 0h.25v-.25h-.25v.25zm.387 4.39H16.52v.5h5.031v-.5zm.138-.137c0 .079-.059.137-.138.137v.5a.633.633 0 00.638-.637h-.5zm0-4.644V8.9h.5V4.257h-.5zm-.138-.138a.14.14 0 01.138.138h.5a.64.64 0 00-.638-.638v.5zm-5.031 0h5.031v-.5H16.52v.5zm-.138.138a.14.14 0 01.138-.138v-.5a.64.64 0 00-.638.638h.5zm0 4.644V4.257h-.5V8.9h.5zm.138.137a.14.14 0 01-.138-.137h-.5c0 .35.287.637.638.637v-.5zm.387-.27h4.257v-.5h-4.257v.5zm-.25-4.12v3.87h.5v-3.87h-.5zm4.507-.25h-4.257v.5h4.257v-.5zm.25 4.12v-3.87h-.5v3.87h.5z" fill="#2BA745"/><path fill-rule="evenodd" clip-rule="evenodd" d="M14.583 3.87h1.55c.212 0 .387-.17.387-.388V.387A.39.39 0 0016.132 0h-1.55a.39.39 0 00-.387.387v3.095a.39.39 0 00.388.387zm1.162-.77h-.775V.774h.775v2.324z" fill="#28A845"/><path d="M14.97 3.1h-.25v.25h.25V3.1zm.775 0v.25h.25V3.1h-.25zM14.97.774v-.25h-.25v.25h.25zm.775 0h.25v-.25h-.25v.25zm.387 2.844h-1.55v.5h1.55v-.5zm.138-.137c0 .077-.061.137-.138.137v.5c.349 0 .638-.28.638-.637h-.5zm0-3.095v3.095h.5V.387h-.5zM16.132.25a.14.14 0 01.138.137h.5a.64.64 0 00-.638-.637v.5zm-1.55 0h1.55v-.5h-1.55v.5zm-.137.137a.14.14 0 01.138-.137v-.5a.64.64 0 00-.638.637h.5zm0 3.095V.387h-.5v3.095h.5zm.138.137a.14.14 0 01-.138-.137h-.5c0 .35.287.637.638.637v-.5zm.387-.27h.775v-.5h-.775v.5zM14.72.775v2.324h.5V.775h-.5zm1.025-.25h-.775v.5h.775v-.5zm.25 2.574V.775h-.5v2.324h.5z" fill="#2BA745"/><g><path fill-rule="evenodd" clip-rule="evenodd" d="M19.562 3.076c.08.014.156.023.236.023.752 0 1.366-.694 1.37-1.55 0-.944-.755-1.69-1.606-1.525l-3.5.69a.385.385 0 00-.312.377v.917c0 .184.132.34.311.378l3.501.69zm.147-.761l-3.19-.628v-.274l3.19-.629c.364-.075.685.307.685.766 0 .458-.326.836-.685.765z" fill="#28A845"/><path d="M19.562 3.076l-.048.245h.005l.043-.245zM21.17 1.55l.25.001V1.55h-.25zM19.562.024l-.047-.246h-.001l.048.246zm-3.5.69l.045.245h.003L16.06.713zm0 1.672l-.052.244.003.001.048-.245zm.458-.7h-.25v.206l.201.04.049-.245zm3.189.629l.048-.245-.048.245zm-3.19-.902l-.048-.246-.201.04v.206h.25zm3.19-.629l.048.246.003-.001-.051-.245zm.09 2.065c-.06 0-.12-.007-.193-.02l-.087.493c.088.015.18.027.28.027v-.5zm1.12-1.3c-.005.748-.536 1.3-1.12 1.3v.5c.917 0 1.614-.836 1.62-1.798l-.5-.003zm-1.31-1.28c.659-.128 1.31.452 1.31 1.28h.5c0-1.06-.862-1.974-1.904-1.77l.095.49zm-3.5.69l3.502-.69-.097-.49-3.5.69.096.49zM16 1.09c0-.065.049-.12.108-.132l-.09-.491a.635.635 0 00-.517.623h.5zm0 .917V1.09h-.5v.917h.5zm.114.133A.139.139 0 0116 2.008h-.5c0 .308.22.561.51.622l.103-.489zm3.498.69l-3.501-.69-.097.49 3.5.69.098-.49zm-3.14-.9l3.19.63.096-.491-3.189-.629-.097.49zm-.201-.518v.274h.5v-.274h-.5zm3.39-.874l-3.189.628.097.49 3.189-.627-.097-.491zm.984 1.01c0-.284-.1-.554-.268-.747-.17-.194-.428-.323-.718-.263l.102.49c.073-.015.158.01.24.103a.642.642 0 01.144.418h.5zM19.66 2.56c.287.057.543-.071.713-.264.17-.191.27-.46.27-.746h-.5a.635.635 0 01-.144.415c-.083.094-.17.119-.242.105l-.097.49z" fill="#2BA745"/></g><g><path fill-rule="evenodd" clip-rule="evenodd" d="M9.551 1.55c0 .855.614 1.55 1.37 1.55.08 0 .16-.01.237-.03l3.5-.689a.385.385 0 00.312-.378v-.912a.389.389 0 00-.312-.378l-3.5-.69C10.308-.141 9.55.61 9.55 1.55zm.775 0c0-.42.274-.775.595-.775l.045.002a.6.6 0 00.045.003l3.189.628v.279l-3.189.628c-.359.07-.685-.307-.685-.765z" fill="#28A845"/><path d="M11.158 3.07l-.049-.245-.012.003.06.243zm3.5-.689l-.045-.246h-.003l.048.246zm0-1.668L14.71.47h-.003l-.049.244zm-3.5-.69l.048-.245-.048.246zM11.01.78l.048-.246-.024-.004h-.024v.25zm3.189.628h.25v-.206l-.202-.04-.048.246zm0 .279l.048.245.202-.04v-.205h-.25zm-3.189.628l-.048-.245.048.245zm-.09.534c-.59 0-1.12-.553-1.12-1.3h-.5c0 .964.698 1.8 1.62 1.8v-.5zm.176-.02a.73.73 0 01-.176.02v.5c.1 0 .2-.011.297-.036l-.121-.485zm3.513-.693l-3.5.69.096.49 3.5-.69-.096-.49zm.11-.133a.135.135 0 01-.107.132l.09.492a.635.635 0 00.517-.624h-.5zm0-.912v.912h.5v-.912h-.5zm-.113-.133a.139.139 0 01.113.133h.5a.639.639 0 00-.51-.622l-.103.489zm-3.498-.69l3.501.69.097-.49-3.501-.69-.097.49zM9.801 1.55c0-.825.651-1.409 1.309-1.281l.095-.49c-1.043-.204-1.904.715-1.904 1.77h.5zm1.12-1.025a.786.786 0 00-.616.327 1.15 1.15 0 00-.229.698h.5a.65.65 0 01.125-.393c.075-.096.156-.132.22-.132v-.5zm.064.003c-.013-.001-.038-.003-.064-.003v.5l.026.001.038-.498zm.026.002l-.026-.002-.038.498c.013.001.039.004.064.004v-.5zm3.237.633L11.06.534l-.096.49 3.189.63.096-.491zm.202.524v-.28h-.5v.28h.5zm-3.39.873l3.188-.628-.096-.49-3.19.628.097.49zm-.984-1.01c0 .286.101.555.27.746.17.193.427.32.713.264l-.096-.49c-.072.014-.16-.011-.242-.105a.635.635 0 01-.145-.415h-.5z" fill="#2BA745"/></g><g><path fill-rule="evenodd" clip-rule="evenodd" d="M1.425 15.482H7.62c.212 0 .387-.17.387-.387v-1.55a.39.39 0 00-.387-.387H1.425a.39.39 0 00-.387.387v1.55a.39.39 0 00.387.387zm5.806-.77H1.813v-.775H7.23v.775z" fill="#28A845"/><path d="M1.813 14.712h-.25v.25h.25v-.25zm5.418 0v.25h.25v-.25h-.25zm-5.418-.775v-.25h-.25v.25h.25zm5.418 0h.25v-.25h-.25v.25zm.388 1.295H1.425v.5H7.62v-.5zm.137-.137c0 .077-.06.137-.137.137v.5c.349 0 .637-.28.637-.637h-.5zm0-1.55v1.55h.5v-1.55h-.5zm-.137-.137a.14.14 0 01.137.137h.5a.64.64 0 00-.637-.637v.5zm-6.194 0H7.62v-.5H1.425v.5zm-.137.137a.14.14 0 01.137-.137v-.5a.64.64 0 00-.637.637h.5zm0 1.55v-1.55h-.5v1.55h.5zm.137.137a.14.14 0 01-.137-.137h-.5c0 .35.287.637.637.637v-.5zm.388-.27H7.23v-.5H1.813v.5zm-.25-1.025v.775h.5v-.775h-.5zm5.668-.25H1.813v.5H7.23v-.5zm.25 1.025v-.775h-.5v.775h.5z" fill="#2BA745"/></g><g><path fill-rule="evenodd" clip-rule="evenodd" d="M1.038 20.905A3.099 3.099 0 004.132 24a3.1 3.1 0 003.1-3.095c0-1.61-2.533-4.237-2.821-4.53a.403.403 0 00-.553 0c-.288.297-2.82 2.924-2.82 4.53zm.77-.004c0-.973 1.488-2.788 2.324-3.695.836.907 2.325 2.722 2.325 3.695a2.329 2.329 0 01-2.325 2.324 2.329 2.329 0 01-2.324-2.324z" fill="#28A845"/><path d="M4.411 16.375l.178-.175-.001-.002-.177.177zm-.553 0l-.177-.177-.002.003.18.174zm.274.831l.184-.17-.184-.199-.184.2.184.17zm0 6.544a2.849 2.849 0 01-2.844-2.845h-.5c0 1.844 1.5 3.345 3.344 3.345v-.5zm2.85-2.845a2.85 2.85 0 01-2.85 2.845v.5a3.35 3.35 0 003.35-3.345h-.5zm-2.75-4.355c.141.143.838.864 1.497 1.746.33.44.646.916.88 1.376.235.465.372.89.372 1.233h.5c0-.46-.178-.969-.427-1.459-.25-.495-.585-.996-.924-1.45A19.036 19.036 0 004.59 16.2l-.357.35zm-.197.002c.049-.05.15-.05.2 0l.353-.354a.652.652 0 00-.907 0l.354.354zm-2.747 4.354c0-.344.137-.767.373-1.231.233-.46.55-.935.88-1.376a19.133 19.133 0 011.497-1.75l-.36-.348c-.145.15-.86.891-1.538 1.799-.34.453-.674.954-.925 1.449-.248.49-.427.996-.427 1.456h.5zm2.66-3.87a18.069 18.069 0 00-1.497 1.85 7.73 7.73 0 00-.623 1.047c-.158.333-.27.669-.27.968h.5c0-.188.074-.443.221-.753.145-.305.35-.639.583-.977a17.568 17.568 0 011.454-1.795l-.368-.34zm2.759 3.865c0-.3-.112-.635-.27-.968a7.73 7.73 0 00-.623-1.046 18.068 18.068 0 00-1.498-1.85l-.368.339c.414.448.987 1.12 1.454 1.795.234.338.439.672.583.977.147.31.222.565.222.753h.5zm-2.575 2.574a2.579 2.579 0 002.575-2.574h-.5a2.079 2.079 0 01-2.075 2.074v.5zm-2.574-2.574a2.579 2.579 0 002.574 2.574v-.5a2.079 2.079 0 01-2.074-2.074h-.5z" fill="#2BA745"/></g></svg>