<svg width="31" height="28" fill="none" xmlns="http://www.w3.org/2000/svg"><path fill-rule="evenodd" clip-rule="evenodd" d="M29.558 12.97C31.393 7.647 27.25 1.04 21.984 1c-1.687-.002-3.346.567-4.791 1.446-.819.498-1.676 1.184-1.676 1.184-1.63-1.38-3.602-2.407-5.697-2.593-3.36-.298-6.66 1.98-8.04 5.036-1.482 3.283-.7 6.815 1.063 9.54 2.998 4.634 7.529 8.137 12.21 11.17.608.39.783.135.783.135a52.74 52.74 0 004.424-3.102c3.887-3.004 7.764-6.393 9.298-10.846z" fill="#FF5570"/><path d="M21.984 1V.85 1zm7.574 11.97l.142.049-.142-.05zM17.193 2.446l-.078-.128.078.128zM15.517 3.63l-.096.114.094.08.096-.077-.094-.117zM9.82 1.037l-.014.15.014-.15zM1.78 6.073l-.136-.062.136.062zm1.063 9.54l-.125.082.125-.081zm12.21 11.17l-.082.126.082-.126zm.783.135l-.08-.128-.026.017-.018.026.124.085zm4.424-3.102l-.091-.118.091.118zM21.983 1.15c2.568.02 4.878 1.642 6.324 3.934 1.445 2.291 2.01 5.226 1.11 7.837l.283.098c.935-2.713.345-5.742-1.14-8.095C27.078 2.572 24.684.871 21.986.85l-.002.3zM17.27 2.575c1.427-.869 3.06-1.427 4.712-1.425v-.3c-1.719-.002-3.405.578-4.868 1.468l.156.257zM15.517 3.63l.094.117.002-.002.008-.005.028-.023a17.671 17.671 0 01.488-.371c.315-.233.73-.526 1.134-.771l-.156-.257c-.415.252-.838.551-1.156.786a21.844 21.844 0 00-.496.378l-.03.023-.007.006-.002.001.093.118zm-5.71-2.444c2.055.183 3.998 1.193 5.614 2.558l.193-.229C13.967 2.123 11.968 1.077 9.833.888l-.027.298zm-7.89 4.948C3.275 3.128 6.521.895 9.807 1.186l.026-.298C6.4.583 3.045 2.908 1.643 6.01l.274.123zm1.052 9.399C1.225 12.835.462 9.358 1.917 6.134l-.273-.123c-1.51 3.342-.709 6.93 1.074 9.684l.251-.162zm12.166 11.124c-4.677-3.03-9.186-6.518-12.166-11.125l-.251.163c3.015 4.661 7.568 8.178 12.254 11.214l.163-.252zm.7.26a6.567 6.567 0 01-.123-.084v-.001l.002-.001v-.002a.042.042 0 01.005-.005l-.005.004a.134.134 0 01-.06.02c-.072.009-.232-.006-.52-.191l-.162.252c.32.205.55.258.72.237a.432.432 0 00.192-.071.336.336 0 00.072-.067l.002-.003v-.002h.001l-.123-.085zm4.334-3.22a52.553 52.553 0 01-4.412 3.093l.158.255a52.89 52.89 0 004.437-3.11l-.183-.237zm9.248-10.776c-1.519 4.406-5.36 7.771-9.248 10.777l.183.237c3.885-3.003 7.797-6.416 9.348-10.916l-.283-.098z" fill="#FF5570"/></svg>