<svg width="27" height="26" fill="none" xmlns="http://www.w3.org/2000/svg"><g fill-rule="evenodd" clip-rule="evenodd"><path d="M13.702 26c7.018 0 12.708-5.82 12.708-13S20.72 0 13.702 0 .995 5.82.995 13s5.69 13 12.707 13z" fill="#41B4E6"/><path d="M26.41 13c0-.317-.012-.63-.034-.942L21.11 6.671 6.295 12.632l5.668 5.8.075.273.096-.1v.001l-.096.099 6.27 6.415c4.741-1.888 8.102-6.602 8.102-12.12z" fill="#0091C8"/><path d="M12.469 14.894l5.742 4.436L21.11 6.67 6.295 12.633l4.508 1.528 8.227-5.646-6.562 6.38z" fill="#fff"/><path d="M10.803 14.16l1.235 4.545.43-3.81 6.562-6.38-8.227 5.645z" fill="#D2D2D7"/><path d="M14.335 16.336l-2.297 2.369.43-3.81 1.867 1.44z" fill="#B9B9BE"/></g></svg>