<svg width="12" height="14" fill="none" xmlns="http://www.w3.org/2000/svg"><path fill-rule="evenodd" clip-rule="evenodd" d="M6.045 0c3.274.03 6.185 2.922 5.94 6.463-.199 2.897-2.113 5.593-4.706 7.08-.547.314-1.116.608-1.763.371-.713-.26-1.348-.707-1.946-1.191C1.265 10.855-.415 7.977.09 4.963.543 2.257 3.033.047 5.929 0h.116zm-.074.475C2.978.503.287 3.11.504 6.397c.19 2.895 2.236 5.612 4.788 6.9.332.167.681.31 1.095.152.663-.253 1.257-.671 1.813-1.124 2.054-1.67 3.525-4.196 3.305-6.839C11.283 2.827 8.928.521 6.078.476H5.97zm.057 1.902c1.541.014 2.995 1.193 3.28 2.718.277 1.475-.593 3.087-1.995 3.674-1.558.654-3.57-.08-4.325-1.605-.778-1.574-.042-3.717 1.6-4.476a3.41 3.41 0 011.44-.311zm-.04.475c-1.329.013-2.569 1.03-2.812 2.33-.24 1.276.525 2.67 1.743 3.163 1.345.545 3.06-.105 3.69-1.421.813-1.699-.491-4.079-2.621-4.072z" fill="#2C2E3F"/></svg>