<svg width="26" height="25" fill="none" xmlns="http://www.w3.org/2000/svg"><g fill-rule="evenodd" clip-rule="evenodd" fill="#28A845" stroke="#28A845" stroke-width=".8"><path d="M23.956 4.927v14.147a3.887 3.887 0 01-3.883 3.882H5.927a3.887 3.887 0 01-3.883-3.882V4.927a3.887 3.887 0 013.883-3.883h14.146V.216H5.927a4.716 4.716 0 00-4.71 4.71v14.148a4.716 4.716 0 004.71 4.71h14.146a4.716 4.716 0 004.71-4.71V4.927h-.827z"/><path d="M5.475 9.91l-.616.553 6.623 7.37L24.694 1.223l-.648-.515-12.603 15.846L5.475 9.91z"/></g></svg>