<svg width="16" height="16" fill="none" xmlns="http://www.w3.org/2000/svg"><path fill-rule="evenodd" clip-rule="evenodd" d="M14.686 12.073l-2.162-2.167c-.43-.43-1.143-.417-1.589.03l-1.09 1.092-.214-.12c-.689-.383-1.63-.905-2.621-1.9-.994-.995-1.517-1.94-1.898-2.63l-.117-.211.73-.731.36-.361c.446-.448.459-1.162.029-1.593L3.951 1.315c-.429-.431-1.142-.418-1.59.03l-.608.614.016.016a3.543 3.543 0 00-.501.888c-.118.31-.191.605-.224.9-.286 2.372.796 4.54 3.73 7.482 4.058 4.066 7.329 3.76 7.47 3.744a3.64 3.64 0 00.9-.226c.322-.126.623-.297.883-.501l.013.012.618-.606c.444-.448.458-1.162.028-1.595z" fill="#fff" stroke="#fff" stroke-width=".6"/></svg>