<svg width="12" height="12" fill="none" xmlns="http://www.w3.org/2000/svg"><g fill="#2C2E3F"><path fill-rule="evenodd" clip-rule="evenodd" d="M10.94 6A4.944 4.944 0 016 10.94 4.944 4.944 0 011.06 6 4.944 4.944 0 016 1.06 4.944 4.944 0 0110.94 6zm-9.642-.12h.416c.072 0 .12.049.12.12s-.048.119-.12.119h-.416a4.722 4.722 0 004.583 4.583v-.416c0-.072.048-.12.119-.12s.119.048.119.12v.416a4.722 4.722 0 004.583-4.583h-.416c-.072 0-.12-.048-.12-.119s.048-.12.12-.12h.416A4.722 4.722 0 006.12 1.299v.416c0 .072-.048.12-.119.12s-.119-.048-.119-.12v-.416A4.722 4.722 0 001.298 5.88z"/><path d="M1.298 5.88l-.1-.002-.003.103h.103v-.1zm0 .239v-.1h-.103l.003.103.1-.003zm4.583 4.583l-.003.1.103.003v-.103h-.1zm.238 0h-.1v.103l.103-.003-.003-.1zm4.583-4.583l.1.003.003-.103h-.103v.1zm0-.238v.1h.103l-.003-.103-.1.003zM6.12 1.298l.003-.1-.103-.003v.103h.1zm-.238 0h.1v-.103l-.103.003.003.1zM6 11.04c2.781 0 5.04-2.259 5.04-5.04h-.2c0 2.67-2.169 4.84-4.84 4.84v.2zM.96 6c0 2.781 2.259 5.04 5.04 5.04v-.2A4.844 4.844 0 011.16 6h-.2zM6 .96A5.044 5.044 0 00.96 6h.2c0-2.671 2.169-4.84 4.84-4.84v-.2zM11.04 6C11.04 3.219 8.781.96 6 .96v.2c2.671 0 4.84 2.169 4.84 4.84h.2zm-9.326-.22h-.416v.2h.416v-.2zm.22.22a.219.219 0 00-.063-.157.219.219 0 00-.157-.062v.2c.007 0 .011.001.013.002l.003.001.001.003c.001.002.002.006.002.013h.2zm-.22.219c.059 0 .115-.02.157-.062A.219.219 0 001.933 6h-.2c0 .007 0 .01-.002.013a.008.008 0 01-.001.003l-.003.001a.036.036 0 01-.013.002v.2zm-.416 0h.416v-.2h-.416v.2zm4.586 4.383a4.622 4.622 0 01-4.486-4.486l-.2.006a4.822 4.822 0 004.68 4.68l.006-.2zm-.103-.316v.416h.2v-.416h-.2zm.219-.22a.219.219 0 00-.157.063.219.219 0 00-.062.157h.2c0-.007.001-.011.002-.013l.001-.003.003-.002A.039.039 0 016 10.268v-.2zm.22.22a.219.219 0 00-.063-.157.219.219 0 00-.157-.062v.2c.007 0 .01 0 .013.002l.003.001.001.003c0 .002.002.006.002.013h.2zm0 .416v-.416h-.2v.416h.2zm4.382-4.586a4.622 4.622 0 01-4.486 4.486l.006.2a4.821 4.821 0 004.68-4.68l-.2-.006zm-.316.103h.416v-.2h-.416v.2zM10.066 6c0 .058.02.115.063.157a.219.219 0 00.157.062v-.2a.036.036 0 01-.013-.002l-.003-.001-.001-.003A.036.036 0 0110.267 6h-.2zm.22-.22a.219.219 0 00-.157.063.219.219 0 00-.062.157h.2c0-.007 0-.01.002-.013l.001-.003.003-.001a.036.036 0 01.013-.002v-.2zm.416 0h-.416v.2h.416v-.2zM6.116 1.399a4.622 4.622 0 014.486 4.486l.2-.006a4.822 4.822 0 00-4.68-4.68l-.006.2zm.103.316v-.416h-.2v.416h.2zM6 1.934c.058 0 .115-.02.157-.063a.219.219 0 00.062-.157h-.2c0 .007-.001.011-.002.013a.008.008 0 01-.001.003l-.003.001A.036.036 0 016 1.733v.2zm-.22-.22c0 .059.02.115.063.157A.219.219 0 006 1.933v-.2a.036.036 0 01-.013-.002.008.008 0 01-.003-.001l-.001-.003a.036.036 0 01-.002-.013h-.2zm0-.416v.416h.2v-.416h-.2zM1.399 5.884a4.622 4.622 0 014.486-4.486l-.006-.2a4.822 4.822 0 00-4.68 4.68l.2.006z"/><g><path fill-rule="evenodd" clip-rule="evenodd" d="M6.417 5.762c0 .226-.19.417-.417.417a.44.44 0 01-.429-.417c0-.179.131-.345.298-.393V3.024c0-.072.048-.12.12-.12.07 0 .118.048.118.12v2.345c.024 0 .048.012.072.024l.666-.833c.036-.06.12-.06.167-.024.06.035.06.119.024.166l-.679.858c.036.06.06.13.06.202zm-.238 0A.183.183 0 006 5.583a.183.183 0 00-.179.179c0 .095.084.179.179.179a.183.183 0 00.179-.18z"/><path d="M5.571 5.762h-.1v.005l.1-.005zm.298-.393l.028.096.072-.02v-.076h-.1zm.238 0h-.1v.1h.1v-.1zm.072.024l-.045.09.072.035.05-.063-.077-.062zm.666-.833l.079.063.007-.012-.086-.051zm.167-.024l-.06.08.008.005.052-.085zm.024.166l.078.063.002-.003-.08-.06zm-.679.858l-.078-.063-.043.055.035.059.086-.051zM6 6.279a.522.522 0 00.517-.517h-.2A.322.322 0 016 6.079v.2zm-.528-.512A.54.54 0 006 6.28v-.2a.34.34 0 01-.329-.322l-.2.01zm.37-.494a.522.522 0 00-.37.489h.2c0-.133.1-.261.225-.297l-.055-.192zm-.073-2.25V5.37h.2V3.024h-.2zm.22-.218a.219.219 0 00-.158.062.219.219 0 00-.062.157h.2c0-.007.001-.011.002-.013l.001-.003.003-.001a.036.036 0 01.013-.002v-.2zm.218.219a.219.219 0 00-.062-.157.219.219 0 00-.157-.062v.2c.007 0 .01 0 .013.002l.003.001.001.003c.001.002.002.006.002.013h.2zm0 2.345V3.024h-.2v2.345h.2zm.016-.066c-.018-.009-.064-.034-.116-.034v.2c-.004 0-.005-.001 0 .001a.3.3 0 01.027.012l.09-.179zm.544-.806L6.1 5.33l.157.125.666-.833-.156-.125zm.305-.041a.23.23 0 00-.157-.044.2.2 0 00-.156.096l.172.103-.001.001h.004a.032.032 0 01.018.004l.12-.16zm.044.306a.23.23 0 00.043-.157.2.2 0 00-.096-.155l-.103.171v.003a.032.032 0 01-.004.018l.16.12zm-.68.86l.678-.858-.157-.124-.678.857.157.125zm.08.14a.501.501 0 00-.073-.254l-.172.103a.302.302 0 01.046.15h.2zM6 5.683c.04 0 .079.039.079.079h.2A.283.283 0 006 5.483v.2zm-.079.079c0-.04.039-.079.079-.079v-.2a.283.283 0 00-.279.279h.2zM6 5.84a.083.083 0 01-.079-.08h-.2c0 .151.129.28.279.28v-.2zm.079-.08c0 .04-.039.08-.079.08v.2c.15 0 .279-.129.279-.28h-.2z"/></g></g></svg>