<svg width="17" height="15" fill="none" xmlns="http://www.w3.org/2000/svg"><path fill-rule="evenodd" clip-rule="evenodd" d="M11.577 0c2.906.022 5.191 3.58 4.18 6.445-.847 2.398-2.986 4.223-5.13 5.84a29.097 29.097 0 01-2.442 1.67s-.096.139-.432-.072C5.171 12.25 2.671 10.364 1.017 7.87.044 6.401-.387 4.499.431 2.731 1.19 1.086 3.013-.14 4.866.02 6.022.12 7.11.673 8.01 1.416c0 0 .472-.37.924-.637.798-.474 1.713-.78 2.643-.779zm-.047.505c-1.254.013-2.469.624-3.316 1.44 0 0-.224.127-.47-.085C6.505.796 4.778.141 3.17.805 1.195 1.62-.107 3.925.74 6.232c.754 2.05 2.526 3.643 4.317 5.09.948.766 1.94 1.481 2.972 2.134 2.549-1.58 4.997-3.423 6.554-5.824.65-1.003 1.054-2.157.85-3.382C15.11 2.329 13.56.52 11.574.505h-.045z" fill="#0087FD"/><path d="M11.577 0l.001-.15V0zm4.18 6.445l.14.05-.14-.05zm-5.13 5.84l-.091-.119.09.12zm-2.442 1.67l-.077-.128-.027.017-.018.026.122.086zm-.432-.072l-.08.127.08-.127zM1.017 7.87l-.125.083.125-.083zM.431 2.731l-.137-.063.137.063zM4.866.02l-.013.15.013-.15zM8.01 1.416l-.096.116.093.076.095-.074-.092-.118zM8.934.78l-.077-.13.077.13zM11.53.505l-.002-.15.002.15zm-3.316 1.44l.074.13.017-.01.013-.012-.104-.108zm-.47-.085l.1-.113h-.002l-.097.113zM3.17.805l.057.138L3.17.805zM.74 6.232l-.14.051.14-.051zm4.317 5.09l-.094.116.094-.116zm2.972 2.134l-.08.127.079.05.08-.05-.08-.127zm6.554-5.824l-.126-.081.126.081zm.85-3.382l-.149.024.148-.024zM11.574.505l.001-.15h-.001v.15zm.001-.355c1.39.01 2.646.868 3.434 2.087.788 1.22 1.092 2.777.605 4.158l.283.1c.524-1.485.192-3.139-.636-4.42C14.434.794 13.094-.14 11.578-.15l-.002.3zm4.039 6.245c-.83 2.35-2.933 4.152-5.079 5.771l.18.24c2.143-1.617 4.318-3.465 5.182-5.91l-.283-.1zm-5.079 5.771a28.958 28.958 0 01-2.428 1.661l.155.257a29.266 29.266 0 002.454-1.678l-.181-.24zm-2.35 1.79l-.123-.087.001-.002.002-.002a.102.102 0 01.007-.009.055.055 0 01.008-.006c.005-.004.004-.002-.004 0-.019.002-.092.002-.244-.094l-.16.254c.184.115.327.151.44.137a.307.307 0 00.175-.08.24.24 0 00.016-.02l.002-.003.001-.001c.001-.001.001-.001-.122-.087zm-.352-.2c-2.579-1.63-5.056-3.502-6.692-5.97l-.25.166c1.672 2.522 4.194 4.422 6.781 6.058l.16-.254zm-6.692-5.97C.19 6.348-.223 4.502.567 2.794l-.273-.126C-.55 4.497-.1 6.454.892 7.952l.25-.166zM.567 2.794C1.305 1.2 3.07.015 4.853.17l.026-.299C2.954-.296 1.079.974.294 2.668l.273.126zM4.853.17C5.97.266 7.03.802 7.914 1.532l.191-.232C7.189.545 6.074-.026 4.879-.13l-.026.3zM8.01 1.416l.092.118h.001l.004-.004a6.616 6.616 0 01.074-.056c.05-.038.123-.092.21-.154.172-.125.4-.281.62-.412L8.856.65A9.063 9.063 0 008 1.235l-.06.046-.017.012-.004.004h-.001l.092.12zm1-.508c.78-.463 1.67-.76 2.567-.758v-.3c-.963-.001-1.904.316-2.72.8l.153.258zm2.518-.553C10.229.369 8.979 1 8.11 1.837l.208.216c.826-.795 2.006-1.385 3.213-1.398l-.003-.3zm-3.314 1.59a12.654 12.654 0 01-.073-.131h.001v-.001c.001 0 0 0 0 0a.243.243 0 01-.079.019c-.052.003-.13-.007-.22-.085l-.196.226a.597.597 0 00.434.159.543.543 0 00.204-.055l.002-.001h.001l-.074-.131zm-.372-.199C6.578.663 4.793-.028 3.112.666l.114.277C4.761.31 6.428.93 7.647 1.973l.195-.227zM3.112.666C1.072 1.508-.278 3.893.6 6.283L.88 6.18C.065 3.959 1.317 1.731 3.226.943L3.112.666zM.6 6.283c.769 2.094 2.574 3.71 4.363 5.155l.188-.233C3.36 9.757 1.618 8.187.881 6.18L.6 6.283zm4.363 5.155c.952.77 1.948 1.489 2.985 2.145l.16-.254a31.54 31.54 0 01-2.957-2.124l-.188.233zm3.145 2.145c2.554-1.583 5.025-3.44 6.6-5.87l-.251-.162c-1.538 2.372-3.963 4.2-6.507 5.777l.158.255zm6.6-5.87c.663-1.021 1.085-2.213.872-3.488l-.296.05c.197 1.175-.189 2.291-.827 3.276l.252.163zm.872-3.488C15.252 2.257 13.657.37 11.576.355l-.002.3c1.89.014 3.397 1.746 3.71 3.62l.296-.05zM11.575.355h-.047l.003.3h.044v-.3z" fill="#0087FD"/></svg>