<svg width="167" height="103" fill="none" xmlns="http://www.w3.org/2000/svg"><path fill-rule="evenodd" clip-rule="evenodd" d="M46 86h83a7 7 0 100-14s-6-3.134-6-7 3.952-7 8.826-7H142a7 7 0 100-14h-22a7 7 0 100-14h40a7 7 0 100-14H62a7 7 0 100 14H22a7 7 0 100 14h25a7 7 0 110 14H7a7 7 0 100 14h39a7 7 0 100 14zm107-35a7 7 0 1014 0 7 7 0 00-14 0z" fill="#F3F7FF"/><path d="M58 4h64a4 4 0 014 4v80a4 4 0 01-4 4H58V4z" fill="#E8F0FE"/><path d="M58 8h61a4 4 0 014 4v86a4 4 0 01-4 4H58V8z" fill="#fff"/><g fill="#75A4FE"><path fill-rule="evenodd" clip-rule="evenodd" d="M98.237 96.576H81.512V85.07h16.725v11.505zm-15.475-5.129v3.88h14.225v-3.88h-3.544a3.628 3.628 0 01-3.569 2.996 3.628 3.628 0 01-3.569-2.996h-3.543zm4.736-.622a2.377 2.377 0 014.753 0 2.376 2.376 0 01-2.377 2.37 2.375 2.375 0 01-2.376-2.37zm9.489-.625v-3.88H82.762v3.88h3.543a3.628 3.628 0 013.57-2.998 3.628 3.628 0 013.568 2.998h3.544z"/><path d="M81.512 96.576h-.5v.5h.5v-.5zm16.725 0v.5h.5v-.5h-.5zM81.512 85.07v-.5h-.5v.5h.5zm16.725 0h.5v-.5h-.5v.5zM82.762 95.326h-.5v.5h.5v-.5zm0-3.879v-.5h-.5v.5h.5zm14.225 3.88v.5h.5v-.5h-.5zm0-3.88h.5v-.5h-.5v.5zm-3.544 0v-.5h-.42l-.073.414.493.086zm-7.138 0l.493-.086-.073-.414h-.42v.5zm10.682-5.126h.5v-.5h-.5v.5zm0 3.879v.5h.5v-.5h-.5zm-14.225-3.88v-.5h-.5v.5h.5zm0 3.88h-.5v.5h.5v-.5zm3.543 0v.5h.42l.073-.414-.493-.086zm7.138 0l-.493.086.073.414h.42v-.5zm-11.93 6.876h16.724v-1H81.512v1zm-.5-12.005v11.505h1V85.07h-1zm17.224-.5H81.512v1h16.725v-1zm.5 12.005V85.07h-1v11.505h1zm-15.475-1.25v-3.879h-1v3.88h1zm13.725-.5H82.762v1h14.225v-1zm-.5-3.379v3.88h1v-3.88h-1zm-3.044.5h3.544v-1h-3.544v1zm-3.569 2.996a4.128 4.128 0 004.061-3.41l-.985-.172a3.128 3.128 0 01-3.076 2.582v1zm-4.061-3.41a4.128 4.128 0 004.061 3.41v-1a3.128 3.128 0 01-3.076-2.582l-.985.173zm-3.05.414h3.542v-1h-3.543v1zm7.111-3.997a2.877 2.877 0 00-2.876 2.875h1c0-1.034.841-1.875 1.876-1.875v-1zm2.877 2.875a2.878 2.878 0 00-2.877-2.875v1c1.035 0 1.877.841 1.877 1.875h1zm-2.877 2.87a2.876 2.876 0 002.877-2.87h-1c0 1.03-.84 1.87-1.877 1.87v1zm-2.876-2.87c0 1.585 1.29 2.87 2.876 2.87v-1a1.875 1.875 0 01-1.876-1.87h-1zm9.489-4.504V90.2h1v-3.88h-1zm-13.725.5h14.225v-1H82.762v1zm.5 3.379v-3.88h-1v3.88h1zm3.043-.5h-3.543v1h3.543v-1zm3.57-2.998a4.128 4.128 0 00-4.062 3.412l.985.172a3.128 3.128 0 013.076-2.584v-1zm4.06 3.412a4.128 4.128 0 00-4.06-3.412v1a3.128 3.128 0 013.075 2.584l.985-.172zm3.052-.414h-3.544v1h3.544v-1z"/></g><g fill="#75A4FE"><path fill-rule="evenodd" clip-rule="evenodd" d="M112.169 79.843h-44.59v-7.177h44.59v7.177zm-1.25-5.928h-42.09v4.68h42.09v-4.68z"/><path d="M67.58 79.843h-.5v.5h.5v-.5zm44.589 0v.5h.5v-.5h-.5zm-44.59-7.177v-.5h-.5v.5h.5zm44.59 0h.5v-.5h-.5v.5zm-43.34 1.249v-.5h-.5v.5h.5zm42.09 0h.5v-.5h-.5v.5zm-42.09 4.68h-.5v.5h.5v-.5zm42.09 0v.5h.5v-.5h-.5zm-43.34 1.748h44.59v-1h-44.59v1zm-.5-7.677v7.177h1v-7.177h-1zm45.09-.5h-44.59v1h44.59v-1zm.5 7.677v-7.177h-1v7.177h1zm-43.84-5.428h42.09v-1h-42.09v1zm.5 4.18v-4.68h-1v4.68h1zm41.59-.5h-42.09v1h42.09v-1zm-.5-4.18v4.68h1v-4.68h-1z"/></g><g fill="#75A4FE"><path fill-rule="evenodd" clip-rule="evenodd" d="M92.96 60.71c.792.188 1.61.384 2.635.384.804 0 1.669-.12 2.644-.365 4.215-1.06 4.662-5.866 4.662-5.883.019-.12.432-2.95-2.212-4.762a86.248 86.248 0 00-.79-.535l-.007-.004c-2.061-1.386-3.69-2.481-4.951-5.184-1.58-3.385-3.982-3.75-4.941-3.75-.959 0-3.361.365-4.94 3.75-1.262 2.703-2.89 3.798-4.953 5.184l-.007.004c-.257.173-.52.35-.789.535-2.644 1.813-2.23 4.642-2.216 4.731.005.048.451 4.854 4.666 5.914.975.246 1.84.365 2.645.365 1.025 0 1.844-.196 2.635-.385.854-.204 1.736-.414 2.959-.414 1.222 0 2.106.21 2.959.414h.001zm.194-.82c-.9-.215-1.832-.437-3.154-.437-1.322 0-2.253.222-3.154.437-.779.186-1.514.362-2.441.362-.734 0-1.532-.111-2.439-.34-3.626-.912-4.017-4.994-4.035-5.198-.004-.024-.355-2.42 1.856-3.936.267-.184.528-.36.784-.531l.006-.004c2.085-1.401 3.885-2.612 5.245-5.526 1.375-2.946 3.38-3.264 4.178-3.264s2.803.317 4.177 3.264c1.361 2.914 3.161 4.125 5.246 5.526.257.173.521.35.79.535 2.196 1.506 1.871 3.84 1.853 3.967-.003.043-.394 4.252-4.032 5.168-.908.228-1.705.34-2.439.34-.927 0-1.662-.176-2.441-.362z"/><path d="M92.96 60.71l.116-.487-.116.486zm5.279.02l-.122-.486.122.485zm4.662-5.884l-.494-.079-.006.04v.039h.5zm-2.212-4.762l-.283.412.283-.412zm-.79-.535l-.279.415.28-.415zm-.007-.004l.28-.415h-.001l-.279.415zm-4.951-5.184l.453-.211-.454.211zm-9.882 0l.454.212-.454-.212zm-4.951 5.184l-.28-.415.28.415zm-.008.004l-.278-.415.278.415zm-.789.535l.283.412-.283-.412zm-2.216 4.731l.499-.041-.002-.021-.004-.021-.492.083zm4.666 5.914l.122-.485-.122.485zm5.28-.02l-.115-.486h-.001l.116.486zm0 0l.116.487-.115-.487zm5.918 0l-.117.486.117-.486zm.195-.818l.137-.481-.01-.003-.01-.003-.117.487zm-6.308 0l-.117-.487.117.486zm-4.88.022l-.122.485.122-.485zm-4.035-5.199l.497-.045-.001-.019-.003-.018-.494.082zm1.856-3.936l.282.413-.282-.413zm.784-.531l-.279-.415.28.415zm.006-.004l.279.415-.279-.415zm0 0l.28.415-.28-.415zm5.245-5.526l-.453-.212.453.212zm8.355 0l-.453.211.453-.211zm5.246 5.526l-.279.415.279-.415zm.79.535l-.283.412.283-.412zm1.853 3.967l-.495-.07-.002.015-.001.014.498.041zm-4.032 5.168l.122.485-.122-.485zm-4.88-.022l-.137.48.01.003.01.003.117-.486zm2.441.703c-.96 0-1.727-.182-2.519-.37l-.232.972c.79.189 1.66.398 2.751.398v-1zm2.522-.35c-.945.238-1.768.35-2.522.35v1c.854 0 1.76-.127 2.766-.38l-.244-.97zm4.284-5.398c0-.03.003-.06.001-.04v.005l-.004.033-.019.141a8.064 8.064 0 01-.68 2.196c-.599 1.253-1.666 2.581-3.582 3.063l.244.97c2.299-.578 3.562-2.183 4.24-3.602a9.157 9.157 0 00.766-2.477 6.075 6.075 0 00.03-.224l.001-.016.001-.009v-.007l.001-.009.001-.024h-1zm-1.995-4.35c2.388 1.637 2.014 4.19 2.001 4.271l.987.157c.025-.157.477-3.264-2.422-5.252l-.566.825zm-.786-.532c.258.173.519.349.786.532l.566-.824c-.271-.186-.537-.365-.794-.538l-.558.83zm-.007-.005l.007.005.558-.83-.006-.004-.558.83zm-5.126-5.387c1.324 2.837 3.058 3.997 5.127 5.388l.557-.83c-2.055-1.382-3.579-2.412-4.777-4.98l-.907.422zM90 41.112c.418 0 1.168.079 1.993.54.82.46 1.745 1.315 2.494 2.92l.907-.422c-.83-1.78-1.895-2.8-2.912-3.37A5.112 5.112 0 0090 40.112v1zm-4.487 3.46c.749-1.605 1.675-2.46 2.494-2.92a4.113 4.113 0 011.993-.54v-1c-.541 0-1.471.102-2.482.669-1.017.57-2.081 1.59-2.912 3.369l.907.422zm-5.127 5.388c2.07-1.391 3.803-2.55 5.127-5.387l-.907-.423c-1.198 2.568-2.722 3.598-4.777 4.98l.557.83zm-.007.004l.007-.005-.557-.83-.007.005.557.83zm-.785.532c.267-.183.528-.359.785-.532l-.558-.83c-.257.173-.522.352-.793.538l.566.824zm-2.005 4.236c0 .004-.026-.161-.025-.438 0-.275.027-.654.129-1.082.202-.85.7-1.893 1.9-2.716l-.565-.824c-2.898 1.987-2.448 5.092-2.425 5.226l.986-.166zm4.294 5.512c-1.916-.482-2.983-1.81-3.583-3.067-.602-1.264-.707-2.41-.706-2.403l-.997.083a8.86 8.86 0 00.8 2.75c.68 1.424 1.943 3.029 4.242 3.607l.244-.97zm2.523.35c-.755 0-1.579-.112-2.523-.35l-.244.97c1.005.253 1.912.38 2.767.38v-1zm2.519-.371c-.792.189-1.559.37-2.52.37v1c1.091 0 1.962-.209 2.752-.397l-.232-.973zm.001 0l.23.973-.23-.974zM90 59.794c-1.286 0-2.217.223-3.075.428l.233.972c.85-.203 1.682-.4 2.842-.4v-1zm3.075.428c-.857-.205-1.79-.428-3.075-.428v1c1.16 0 1.993.197 2.842.4l.233-.972zm.001 0h-.001l-.233.973h.002l.232-.973zM90 59.953c1.26 0 2.142.21 3.038.424l.232-.973c-.905-.216-1.885-.45-3.27-.45v1zm-3.038.423c.896-.213 1.779-.423 3.038-.423v-1c-1.385 0-2.364.235-3.27.45l.231.974zm-2.557.376c.993 0 1.78-.19 2.557-.376l-.233-.972c-.78.186-1.463.348-2.324.348v1zm-2.56-.355c.936.236 1.775.355 2.56.355v-1c-.683 0-1.44-.104-2.317-.324l-.244.97zm-4.412-5.638a7.87 7.87 0 00.711 2.504c.594 1.245 1.697 2.63 3.7 3.135l.244-.97c-1.623-.409-2.529-1.521-3.041-2.596a6.884 6.884 0 01-.619-2.163l-.995.09zm2.07-4.393c-2.465 1.69-2.077 4.363-2.066 4.43l.987-.164c.003.02-.31-2.102 1.645-3.441l-.565-.825zm.79-.534c-.256.172-.52.349-.79.534l.567.824c.265-.182.524-.356.78-.528l-.558-.83zm.005-.004l-.006.004.558.83.006-.004-.558-.83zm0 0l.558.83-.558-.83zm5.07-5.323c-1.297 2.78-2.993 3.927-5.07 5.323l.558.83c2.092-1.407 3.997-2.682 5.42-5.73l-.907-.423zM90 40.953a4.26 4.26 0 00-2.124.594c-.87.505-1.781 1.403-2.507 2.958l.906.423c.65-1.39 1.428-2.124 2.103-2.515a3.262 3.262 0 011.622-.46v-1zm4.63 3.552c-.725-1.556-1.636-2.454-2.507-2.958A4.26 4.26 0 0090 40.953v1c.334 0 .943.066 1.622.46.675.39 1.454 1.124 2.102 2.515l.907-.423zm5.072 5.323c-2.077-1.396-3.773-2.542-5.071-5.323l-.907.423c1.423 3.048 3.327 4.323 5.42 5.73l.558-.83zm.794.538a73.298 73.298 0 00-.795-.538l-.556.83c.257.173.518.349.785.532l.566-.824zm2.065 4.449c.023-.16.385-2.77-2.065-4.45l-.566.825c1.942 1.332 1.654 3.389 1.641 3.486l.99.139zm-4.405 5.583c2.013-.507 3.118-1.93 3.709-3.183a7.896 7.896 0 00.699-2.429l-.996-.082c0-.01-.09.987-.607 2.084-.515 1.09-1.424 2.231-3.05 2.64l.245.97zm-2.561.354c.785 0 1.624-.119 2.56-.354l-.243-.97c-.878.22-1.634.324-2.317.324v1zm-2.557-.375c.777.185 1.564.375 2.557.375v-1c-.861 0-1.544-.161-2.325-.348l-.232.973zm-.021-.006l.274-.961-.274.961z"/><g><path fill-rule="evenodd" clip-rule="evenodd" d="M75.697 47.69c.082.014.168.02.255.02 1.174 0 2.555-1.221 3.87-2.54l.089-.09.207-.201.002-.002c.93-.897 2.86-2.763 1.715-5.152-.137-.286-3.395-7-6.957-7-.386 0-.762.08-1.118.24-1.415.633-2.593 2.1-3.23 4.024-.752 2.263-.613 4.664.37 6.42 1.888 3.378 3.484 4.06 4.797 4.281zm-1.593-13.956c.25-.112.503-.167.773-.167 2.255 0 4.943 3.9 6.199 6.522.883 1.843-.694 3.366-1.542 4.184-.081.077-.155.149-.218.212l-.089.09-.002.002c-.627.629-2.287 2.293-3.273 2.292a.67.67 0 01-.115-.009c-1.172-.197-2.492-.802-4.203-3.861-.856-1.53-.973-3.732-.305-5.745.564-1.7 1.576-2.984 2.776-3.52z"/><path d="M75.697 47.69l.084-.493h-.001l-.083.493zm4.126-2.52l.354.352-.355-.353zm.088-.09l-.352-.355-.002.002.354.353zm.207-.201l.347.36-.347-.36zm.002-.002l.347.36-.347-.36zm1.715-5.152l-.451.216.45-.216zm-8.075-6.76l-.204-.457.204.457zm-3.23 4.024l.474.157-.475-.157zm.37 6.42l-.437.245.437-.244zm3.204-9.675l.205.456-.204-.456zm6.972 6.355l-.451.216.45-.216zm-1.542 4.184l.346.36h.001l-.347-.36zm-.218.212l-.353-.353h-.001l.354.353zm-.089.09l.354.353-.354-.353zm-.002.002l.354.353-.354-.353zm-3.273 2.292v-.5.5zm-.115-.009l.085-.493h-.002l-.084.493zM71.633 43l-.436.244.436-.244zm-.305-5.745l-.475-.158.475.158zm4.623 9.957c-.062 0-.12-.005-.171-.014l-.168.986c.114.02.227.028.339.028v-1zm3.517-2.395c-.655.657-1.305 1.267-1.926 1.712-.633.454-1.165.683-1.591.683v1c.748 0 1.493-.383 2.173-.87.692-.496 1.39-1.156 2.052-1.819l-.709-.706zm.088-.089l-.089.09.71.705.088-.09-.71-.705zm.215-.209c-.076.073-.149.143-.213.207l.704.71.202-.196-.693-.721zm0 0v.001l.694.72.001-.002-.694-.72zm1.612-4.577c.49 1.021.329 1.917-.073 2.689-.413.795-1.069 1.434-1.538 1.887l.694.72c.46-.444 1.234-1.187 1.732-2.146.51-.983.742-2.214.086-3.583l-.901.433zm-6.507-6.716c.734 0 1.498.348 2.263.947.76.596 1.475 1.406 2.1 2.244a23.715 23.715 0 012.144 3.525l.901-.432a24.69 24.69 0 00-2.244-3.69c-.652-.876-1.428-1.762-2.284-2.434-.853-.668-1.832-1.16-2.88-1.16v1zm-.912.196c.291-.13.597-.196.912-.196v-1c-.456 0-.901.096-1.32.283l.408.913zm-2.96 3.725c.607-1.834 1.71-3.166 2.96-3.725l-.409-.913c-1.58.707-2.833 2.309-3.501 4.323l.95.315zm.33 6.02c-.9-1.612-1.047-3.863-.33-6.02l-.95-.315c-.786 2.37-.656 4.92.408 6.823l.873-.488zm4.445 4.031c-.594-.1-1.24-.3-1.959-.858-.73-.567-1.561-1.522-2.485-3.173l-.873.488c.965 1.725 1.876 2.8 2.745 3.474a5.149 5.149 0 002.406 1.055l.166-.986zm-.903-14.13c-.342 0-.664.07-.977.21l.409.913c.187-.084.37-.123.569-.123v-1zm6.65 6.806c-.643-1.342-1.651-3.01-2.796-4.352-.572-.672-1.19-1.275-1.826-1.715-.632-.436-1.323-.739-2.028-.739v1c.423 0 .914.185 1.46.562.54.373 1.095.909 1.633 1.54 1.078 1.264 2.041 2.856 2.655 4.136l.901-.432zm-1.646 4.76c.417-.403 1.08-1.038 1.512-1.828.443-.811.664-1.826.133-2.932l-.901.432c.353.737.227 1.405-.11 2.02-.348.637-.898 1.172-1.328 1.588l.694.72zm-.211.206c.06-.06.13-.13.21-.205l-.692-.723c-.082.08-.159.154-.225.22l.707.708zm-.088.088l.089-.09-.71-.705-.088.09.709.705zm-.003.003l.002-.002-.708-.706-.002.001.708.707zm-3.628 2.44c.372 0 .75-.152 1.079-.331.34-.186.685-.433 1.006-.69.64-.514 1.23-1.106 1.543-1.42l-.708-.706c-.315.316-.869.87-1.461 1.346-.296.237-.59.445-.859.591-.279.153-.478.21-.6.21v1zm-.2-.017c.072.012.14.016.2.016v-1a.174.174 0 01-.03-.002l-.17.986zm-4.553-4.11c.873 1.56 1.668 2.535 2.425 3.148.77.623 1.478.852 2.13.962l.167-.986a3.385 3.385 0 01-1.668-.753c-.623-.504-1.344-1.361-2.182-2.86l-.872.489zm-.344-6.147c-.702 2.116-.595 4.468.344 6.147l.872-.489c-.773-1.382-.9-3.433-.267-5.343l-.95-.315zm3.046-3.819c-1.37.612-2.455 2.036-3.046 3.82l.95.314c.536-1.617 1.474-2.76 2.505-3.22l-.409-.914z"/><path fill-rule="evenodd" clip-rule="evenodd" d="M78.544 30.12c1.448 3.776 4.282 4.07 5.117 4.07.189 0 .3-.015.299-.015 1.437-.143 3.18-.799 3.913-4.618.532-2.776-.246-6.608-1.7-8.368-.582-.703-1.265-1.075-1.975-1.075-1.329 0-3.095 1.27-4.396 3.163-1.584 2.303-2.043 4.797-1.258 6.843zm1.952-6.367c1.115-1.62 2.672-2.798 3.702-2.798.458 0 .904.26 1.326.77 1.294 1.567 2.006 5.152 1.522 7.673-.622 3.246-1.892 3.811-3.178 3.94a1.917 1.917 0 01-.207.01c-.699 0-3.076-.256-4.331-3.53-.97-2.533.492-5.085 1.166-6.065z"/><path d="M78.544 30.12l.467-.18-.467.18zm5.416 4.055l-.05-.497.05.997v-.5zm3.913-4.618l-.492-.094.492.094zm-1.7-8.368l-.386.319.385-.319zm-6.371 2.088l-.413-.284.413.284zm.694.476l.411.284-.411-.284zm5.028-2.028l.385-.318-.385.318zm1.522 7.673l.491.094-.49-.094zm-3.178 3.94l-.05-.497h-.008l-.007.001.065.496zm-4.538-3.52l-.467.178.467-.178zm4.33 3.871c-.363 0-1.19-.065-2.087-.557-.887-.487-1.88-1.41-2.562-3.191l-.934.358c.765 1.995 1.914 3.106 3.015 3.71a5.44 5.44 0 002.569.68v-1zm.3.986a.995.995 0 01-.048-.002.936.936 0 01-.286-.126c-.163-.318.008-.75.105-.817a.482.482 0 01.131-.046l.013-.002a.417.417 0 01.02-.003h-.004a2.786 2.786 0 01-.23.01v1a3.788 3.788 0 00.328-.014l.023-.003h.01l.008-.002.015-.002.012-.002a.47.47 0 00.132-.046c.097-.066.268-.499.105-.817a.931.931 0 00-.286-.125.889.889 0 00-.048-.003v1zm3.421-5.212c-.354 1.848-.939 2.854-1.542 3.416-.596.556-1.268.733-1.929.799l.1.995c.776-.078 1.693-.3 2.511-1.063.811-.756 1.465-1.988 1.843-3.959l-.983-.188zm-1.594-7.955c.654.791 1.19 2.1 1.49 3.584.3 1.476.356 3.06.104 4.37l.983.19c.28-1.466.213-3.186-.106-4.76-.319-1.566-.9-3.053-1.7-4.021l-.77.637zm-1.59-.894c.521 0 1.074.27 1.59.894l.77-.637c-.646-.784-1.46-1.257-2.36-1.257v1zm-3.984 2.946c.623-.905 1.35-1.652 2.068-2.168.728-.524 1.4-.778 1.916-.778v-1c-.811 0-1.687.38-2.5.966-.823.592-1.629 1.426-2.308 2.413l.825.567zm-1.202 6.38c-.71-1.85-.316-4.17 1.203-6.38l-.825-.567c-1.647 2.397-2.171 5.064-1.312 7.306l.934-.358zm5.187-9.485c-.68 0-1.435.374-2.121.892-.704.532-1.408 1.272-1.993 2.123l.823.567c.53-.77 1.162-1.43 1.773-1.892.628-.475 1.167-.69 1.518-.69v-1zm1.711.952c-.473-.573-1.047-.952-1.711-.952v1c.25 0 .569.14.94.589l.771-.637zm1.628 8.085c.257-1.338.194-2.932-.095-4.386-.286-1.444-.81-2.825-1.533-3.7l-.77.638c.571.691 1.05 1.887 1.323 3.257.27 1.36.32 2.82.093 4.003l.982.188zm-3.62 4.344c.705-.071 1.475-.27 2.145-.948.655-.663 1.155-1.727 1.475-3.396l-.982-.188c-.302 1.576-.747 2.418-1.205 2.881-.442.449-.95.597-1.532.656l.1.995zm-.256.011c.138 0 .234-.008.271-.013l-.13-.992-.026.002a1.9 1.9 0 01-.115.003v1zm-4.798-3.85c.667 1.74 1.65 2.715 2.595 3.249a4.562 4.562 0 002.203.601v-1c-.293 0-.97-.054-1.711-.472-.732-.413-1.565-1.202-2.153-2.736l-.934.358zm1.22-6.527a9.68 9.68 0 00-1.265 2.587c-.35 1.145-.492 2.537.045 3.94l.934-.358c-.433-1.13-.33-2.28-.022-3.29a8.684 8.684 0 011.132-2.312l-.823-.567z"/><g><path fill-rule="evenodd" clip-rule="evenodd" d="M100.177 45.169c1.317 1.32 2.697 2.542 3.872 2.542.087 0 .171-.007.254-.02 1.312-.222 2.909-.904 4.798-4.281.982-1.757 1.12-4.158.369-6.421-.638-1.925-1.816-3.391-3.231-4.024a2.715 2.715 0 00-1.116-.24c-3.562 0-6.821 6.714-6.958 7-1.145 2.39.785 4.253 1.714 5.151l.002.003c.077.073.147.14.208.201l.088.089zm-1.253-5.08c1.257-2.622 3.944-6.522 6.199-6.522.27 0 .523.055.773.166 1.2.537 2.212 1.82 2.776 3.52.668 2.013.551 4.214-.306 5.745-1.711 3.06-3.03 3.664-4.202 3.862a.724.724 0 01-.115.009c-.986 0-2.646-1.664-3.274-2.293l-.001-.002-.09-.09c-.058-.058-.126-.123-.198-.193l-.019-.019c-.849-.818-2.426-2.34-1.543-4.183z"/><path d="M100.177 45.169l.354-.353v-.001l-.354.354zm4.126 2.521l-.084-.493.084.493zm4.798-4.28l.436.244-.436-.244zm.369-6.421l-.475.157.475-.157zm-3.231-4.024l.204-.457-.204.457zm-8.074 6.76l.451.216-.45-.216zm1.714 5.151l.348-.36-.348.36zm.002.003l-.347.36h.001l.347-.36zm.208.201l-.354.354.354-.354zm-1.165-4.991l.451.216-.45-.216zm6.972-6.356l.204-.456h-.001l-.203.456zm2.776 3.52l-.475.157.475-.157zm-.306 5.745l-.436-.244.436.244zm-4.202 3.862l.08.493h.003l-.083-.493zm-3.389-2.284l.354-.353-.354.353zm-.001-.002l.353-.353-.353.353zm-.09-.09l-.354.354.354-.353zm-.198-.193l-.348.359.348-.36zm-.019-.019l.347-.359-.347.36zm3.582 2.939c-.427 0-.959-.229-1.592-.683-.621-.445-1.271-1.055-1.926-1.712l-.708.706c.661.663 1.36 1.323 2.052 1.82.68.486 1.426.869 2.174.869v-1zm.17-.014a1.003 1.003 0 01-.17.014v1c.111 0 .224-.009.337-.028l-.167-.986zm4.445-4.032c-.924 1.652-1.755 2.607-2.485 3.173a4.155 4.155 0 01-1.96.86l.167.985a5.153 5.153 0 002.406-1.055c.869-.674 1.78-1.749 2.745-3.474l-.873-.489zm.331-6.019c.716 2.157.57 4.408-.331 6.02l.873.488c1.063-1.903 1.194-4.453.408-6.823l-.95.315zm-2.96-3.725c1.25.56 2.352 1.89 2.96 3.725l.95-.315c-.668-2.014-1.922-3.616-3.502-4.323l-.408.913zm-.912-.196c.314 0 .62.066.912.196l.408-.913a3.215 3.215 0 00-1.32-.283v1zm-6.506 6.715c.063-.131.895-1.848 2.143-3.523.625-.839 1.34-1.649 2.1-2.245.765-.6 1.529-.947 2.263-.947v-1c-1.048 0-2.027.492-2.88 1.16-.856.672-1.632 1.558-2.284 2.434a24.677 24.677 0 00-2.245 3.69l.903.431zm1.61 4.577c-.47-.454-1.126-1.093-1.539-1.888-.4-.771-.561-1.667-.072-2.688l-.901-.433c-.656 1.368-.425 2.6.085 3.582.499.96 1.272 1.702 1.732 2.146l.695-.72zm.002.002l-.002-.002-.695.719.002.002.695-.719zm.213.208c-.064-.065-.138-.136-.214-.209l-.693.721c.077.074.144.138.2.195l.707-.707zm.089.088l-.089-.088-.707.707.088.088.708-.707zm4.592-11.748c-.706 0-1.396.303-2.028.739-.636.44-1.254 1.044-1.826 1.714-1.145 1.342-2.153 3.011-2.795 4.353l.901.432c.614-1.28 1.577-2.872 2.655-4.136.538-.632 1.093-1.167 1.634-1.54.545-.377 1.036-.562 1.459-.562v-1zm.976.21a2.36 2.36 0 00-.976-.21v1c.198 0 .382.04.569.123l.407-.913zm3.047 3.819c-.591-1.784-1.676-3.207-3.046-3.82l-.408.914c1.03.46 1.968 1.603 2.505 3.22l.949-.314zm-.344 6.146c.94-1.679 1.046-4.03.344-6.146l-.949.315c.634 1.91.506 3.96-.267 5.343l.872.488zm-4.555 4.11a4.377 4.377 0 002.13-.961c.758-.613 1.552-1.588 2.425-3.149l-.872-.488c-.838 1.498-1.559 2.355-2.182 2.86a3.384 3.384 0 01-1.668.753l.167.986zm-.198.017c.064 0 .13-.005.195-.016l-.161-.987a.204.204 0 01-.034.003v1zm-3.628-2.44c.313.313.903.905 1.544 1.42.32.256.665.504 1.005.689.329.18.707.33 1.079.33v-1c-.121 0-.321-.056-.6-.208a6.158 6.158 0 01-.859-.592c-.592-.475-1.146-1.03-1.461-1.345l-.708.706zm-.001-.002l.002.002.707-.706-.002-.002-.707.706zm-.09-.089l.09.09.707-.707-.089-.09-.708.707zm-.192-.188l.192.188.708-.707-.204-.2-.696.719zm-.019-.019l.019.019.696-.718-.02-.019-.695.718zm-1.645-4.758c-.53 1.105-.31 2.12.133 2.932.433.79 1.095 1.425 1.512 1.827l.695-.72c-.431-.415-.981-.95-1.33-1.587-.335-.616-.462-1.283-.109-2.02l-.901-.432z"/></g><g><path fill-rule="evenodd" clip-rule="evenodd" d="M96.03 34.174s.113.015.31.015c.834 0 3.669-.294 5.116-4.069.784-2.046.326-4.54-1.258-6.843-1.301-1.892-3.068-3.163-4.396-3.163-.71 0-1.393.372-1.975 1.076-1.454 1.76-2.232 5.592-1.7 8.368.734 3.82 2.477 4.474 3.904 4.616zm-1.553-12.449c.421-.51.867-.77 1.325-.77 1.03 0 2.587 1.177 3.703 2.798.674.98 2.136 3.532 1.165 6.065-1.255 3.275-3.632 3.53-4.33 3.53-.118 0-.192-.008-.214-.01h-.002c-1.278-.128-2.547-.694-3.17-3.94-.484-2.52.228-6.106 1.523-7.673z"/><path d="M96.03 34.174l.067-.495-.009-.002h-.008l-.05.497zm5.426-4.054l.467.18v-.001l-.467-.179zm-1.258-6.843l-.412.283.412-.283zm-6.371-2.087l-.385-.32v.001l.385.319zm-1.7 8.368l-.491.094.491-.094zm2.35-7.833l.385.319-.385-.319zm5.028 2.028l.412-.283-.412.283zm1.165 6.065l-.467-.18.467.18zm-4.544 3.52l.051-.498-.05.497zm-.002 0l.052-.498h-.002l-.05.497zm-3.17-3.94l.491-.094-.491.094zm3.386 4.291a2.795 2.795 0 01-.237-.01h-.008s-.001 0 0 0h.001l-.066.495-.066.496h.005l.008.001.023.003.076.006c.064.005.153.01.264.01v-1zm4.649-3.748c-.682 1.78-1.674 2.704-2.561 3.19a4.444 4.444 0 01-2.088.558v1c.47 0 1.479-.082 2.569-.68 1.101-.605 2.249-1.715 3.014-3.71l-.934-.358zm-1.203-6.38c1.519 2.208 1.912 4.53 1.203 6.38l.934.358c.859-2.242.335-4.909-1.313-7.305l-.824.566zm-3.984-2.947c.517 0 1.188.254 1.916.778.718.517 1.446 1.264 2.068 2.168l.824-.566c-.679-.988-1.485-1.822-2.308-2.414-.813-.585-1.689-.966-2.5-.966v1zm-1.59.894c.517-.624 1.07-.894 1.59-.894v-1c-.9 0-1.713.474-2.36 1.257l.77.637zm-1.594 7.956c-.251-1.311-.196-2.896.104-4.372.302-1.484.837-2.793 1.49-3.584l-.77-.637c-.8.968-1.382 2.456-1.7 4.022-.32 1.574-.387 3.293-.106 4.759l.982-.189zm3.462 4.213c-.655-.066-1.325-.242-1.92-.798-.602-.562-1.187-1.568-1.542-3.416l-.982.189c.379 1.971 1.032 3.202 1.842 3.958.816.762 1.73.985 2.503 1.062l.1-.995zm-.278-13.222c-.665 0-1.239.379-1.711.952l.771.636c.37-.449.689-.588.94-.588v-1zm4.115 3.015c-.585-.85-1.29-1.59-1.994-2.123-.686-.518-1.442-.892-2.121-.892v1c.351 0 .89.215 1.518.69.611.462 1.243 1.121 1.773 1.892l.824-.567zm1.22 6.527c.537-1.403.394-2.795.045-3.94a9.67 9.67 0 00-1.265-2.587l-.824.567c.32.466.825 1.301 1.133 2.312.308 1.009.41 2.16-.023 3.29l.934.358zm-4.797 3.85a4.56 4.56 0 002.202-.601c.945-.533 1.928-1.51 2.595-3.25l-.934-.357c-.588 1.535-1.42 2.323-2.153 2.736a3.563 3.563 0 01-1.71.472v1zm-.265-.012c.032.003.124.012.264.012v-1c-.095 0-.15-.006-.162-.007l-.102.995zm-.002 0h.002l.102-.995h-.001l-.103.994zm-3.61-4.343c.32 1.67.82 2.733 1.474 3.396.668.678 1.437.877 2.138.947l.1-.995c-.579-.058-1.084-.206-1.526-.654-.456-.463-.902-1.306-1.204-2.882l-.982.188zm1.628-8.085c-.723.874-1.247 2.255-1.533 3.7-.289 1.454-.352 3.047-.095 4.385l.982-.188c-.227-1.182-.176-2.642.094-4.003.271-1.37.75-2.565 1.323-3.257l-.77-.637z"/></g></g></g><g fill="#75A4FE"><path fill-rule="evenodd" clip-rule="evenodd" d="M122.559 1.046h-59.4a6.88 6.88 0 00-6.845 6.241h-.03v94.668h60.025c3.662 0 6.685-2.761 7.105-6.306a7.123 7.123 0 006.305-7.085V8.195c-.002-3.943-3.213-7.15-7.16-7.15zm-6.251 99.66H57.533V8.536h58.775c3.259 0 5.909 2.646 5.909 5.9v80.371c0 3.251-2.65 5.899-5.909 5.899zm7.159-6.32a5.877 5.877 0 005-5.823h.001V8.195c0-3.254-2.649-5.901-5.908-5.901H63.159a5.63 5.63 0 00-5.59 4.993H116.309c3.948 0 7.159 3.208 7.159 7.15v79.95z"/><path d="M56.314 7.287v.5h.457l.04-.455-.497-.045zm-.03 0v-.5h-.5v.5h.5zm0 94.668h-.5v.5h.5v-.5zm67.13-6.306l-.059-.497-.391.047-.047.391.497.059zm6.305-87.454h.5-.5zm-72.186 92.511h-.5v.5h.5v-.5zm0-92.17v-.5h-.5v.5h.5zm70.934 80.027v-.5h-.5v.5h.5zm-5 5.823h-.5v.582l.575-.088-.075-.494zm5.001-5.823v.5h.5v-.5h-.5zM57.57 7.287l-.497-.055-.062.555h.559v-.5zm5.589-5.741h59.4v-1h-59.4v1zm-6.347 5.786a6.38 6.38 0 016.347-5.786v-1a7.38 7.38 0 00-7.343 6.696l.996.09zm-.528.455h.03v-1h-.03v1zm.5 94.168V7.287h-1v94.668h1zm59.525-.5H56.284v1h60.025v-1zm6.608-5.865c-.391 3.296-3.203 5.865-6.608 5.865v1c3.919 0 7.152-2.954 7.602-6.747l-.994-.118zm6.302-7.026a6.624 6.624 0 01-5.864 6.588l.118.993a7.623 7.623 0 006.746-7.58h-1zm0-80.369v80.37h1V8.194h-1zm-6.66-6.65c3.672 0 6.659 2.984 6.66 6.65h1c-.002-4.22-3.437-7.65-7.66-7.65v1zm-65.026 99.661h58.775v-1H57.533v1zm-.5-92.67v92.17h1V8.536h-1zm6.126-.5h-5.626v1h5.626v-1zm53.149 0h-53.15v1h53.15v-1zm6.409 6.4c0-3.53-2.874-6.4-6.409-6.4v1a5.41 5.41 0 015.409 5.4h1zm0 80.371v-80.37h-1v80.37h1zm-6.409 6.399c3.535 0 6.409-2.871 6.409-6.399h-1c0 2.974-2.425 5.399-5.409 5.399v1zm11.659-12.643a5.377 5.377 0 01-4.576 5.329l.151.988a6.377 6.377 0 005.425-6.317h-1zm.501-.5h-.001v1h.001v-1zm-.5-79.868v80.368h1V8.195h-1zm-5.408-5.401a5.41 5.41 0 015.408 5.401h1c0-3.531-2.873-6.401-6.408-6.401v1zm-59.401 0h59.401v-1H63.159v1zm-5.092 4.548a5.13 5.13 0 015.092-4.548v-1a6.13 6.13 0 00-6.086 5.438l.994.11zm5.092-.555h-5.59v1h5.59v-1zm53.149 0h-53.15v1h53.15v-1zm7.659 7.65c0-4.219-3.436-7.65-7.659-7.65v1c3.672 0 6.659 2.984 6.659 6.65h1zm0 79.95v-79.95h-1v79.95h1z"/></g></svg>