<svg width="26" height="26" fill="none" xmlns="http://www.w3.org/2000/svg"><g fill-rule="evenodd" clip-rule="evenodd"><path d="M13.065 26c7.013 0 12.698-5.82 12.698-13S20.078 0 13.065 0C6.053 0 .368 5.82.368 13s5.684 13 12.697 13z" fill="#FFC107"/><g fill="#fff"><path d="M8.173 12.956c-.407.816.055 1.206 1.11 1.872.898.565 2.137.772 2.934.854l-.668.654c-.945.918-1.843 1.806-2.47 2.422-.913.892.557 2.323 1.47 1.45l2.47-2.428c.946.927 1.852 1.816 2.47 2.431.913.877 2.383-.542 1.48-1.45l-2.47-2.421-.677-.655c.806-.082 2.027-.3 2.913-.854 1.055-.67 1.518-1.06 1.116-1.875-.242-.463-.896-.85-1.767-.181 0 0-1.176.918-3.072.918-1.897 0-3.072-.918-3.072-.918-.87-.673-1.527-.283-1.767.18z"/><path d="M17.21 8.349c0 2.266-1.888 4.106-4.2 4.106-2.312 0-4.2-1.84-4.2-4.106 0-2.276 1.888-4.116 4.2-4.116 2.312 0 4.2 1.84 4.2 4.116zm-2.138 0c0-1.123-.926-2.031-2.062-2.031-1.136 0-2.063.907-2.062 2.03 0 1.114.926 2.022 2.062 2.022 1.136 0 2.063-.908 2.063-2.021z"/></g></g></svg>