<svg width="26" height="26" fill="none" xmlns="http://www.w3.org/2000/svg"><g fill-rule="evenodd" clip-rule="evenodd"><path d="M12.91 25.815c7.13 0 12.91-5.779 12.91-12.908C25.82 5.78 20.04 0 12.91 0S0 5.779 0 12.908c0 7.128 5.78 12.907 12.91 12.907z" fill="#4D76A1"/><path d="M12.423 18.569h1.013s.306-.034.462-.202c.144-.155.14-.445.14-.445s-.02-1.36.61-1.56c.623-.197 1.422 1.314 2.268 1.895.64.44 1.127.343 1.127.343l2.264-.031s1.184-.073.623-1.004c-.046-.076-.327-.689-1.683-1.948-1.42-1.317-1.23-1.104.48-3.382 1.041-1.388 1.458-2.235 1.328-2.598-.124-.346-.89-.254-.89-.254l-2.55.016s-.188-.026-.328.058c-.137.082-.225.273-.225.273s-.404 1.074-.942 1.987c-1.135 1.927-1.589 2.029-1.774 1.91-.432-.28-.324-1.121-.324-1.719 0-1.867.283-2.646-.552-2.847-.277-.067-.48-.111-1.19-.119-.909-.01-1.679.003-2.114.217-.29.142-.514.458-.378.476.169.023.55.103.752.378.262.356.252 1.154.252 1.154s.15 2.198-.35 2.471c-.344.187-.815-.195-1.827-1.943a16.25 16.25 0 01-.91-1.886s-.075-.185-.21-.284a1.056 1.056 0 00-.392-.158l-2.422.016s-.364.01-.497.168c-.119.141-.01.432-.01.432s1.897 4.435 4.044 6.67c1.969 2.05 4.205 1.916 4.205 1.916z" fill="#fff"/></g></svg>