<svg width="13" height="7" fill="none" xmlns="http://www.w3.org/2000/svg"><path fill-rule="evenodd" clip-rule="evenodd" d="M6.526 0C9.003.02 11.6 1.002 12.85 3.15c.06.101.135.255.135.255.075.203-.126.429-.277.659C11.393 6.06 8.884 7 6.457 7 3.991 7 1.371 6.028.153 3.851c-.063-.112-.14-.28-.14-.28-.053-.154.073-.323.17-.49C1.384 1.046 3.894.02 6.41.002h.116zm-.114.412C4.214.429 1.967 1.214.717 3.007a3.976 3.976 0 00-.292.482s.313.58.688 1c1.359 1.527 3.52 2.14 5.568 2.097 2.32-.049 4.761-.973 5.877-3.067 0 0 .005-.047-.017-.087C11.439 1.441 8.948.431 6.524.412h-.112zm.104 1.544c1.007.02 1.827 1.22 1.354 2.213-.412.868-1.712 1.137-2.425.449-.837-.81-.361-2.635 1.032-2.662h.04zm-.034.412c-.737.014-1.339.896-.993 1.623.303.636 1.256.833 1.779.328.351-.34.446-.922.212-1.358a1.103 1.103 0 00-.998-.593z" fill="#2A2F3E"/></svg>