<svg width="27" height="26" fill="none" xmlns="http://www.w3.org/2000/svg"><g fill-rule="evenodd" clip-rule="evenodd"><path d="M13.57 25.815c7.13 0 12.91-5.779 12.91-12.908C26.48 5.78 20.7 0 13.57 0S.658 5.779.658 12.908c0 7.128 5.78 12.907 12.91 12.907z" fill="#55ACEE"/><path d="M21.477 9.276a6.158 6.158 0 01-1.772.485 3.094 3.094 0 001.357-1.706 6.179 6.179 0 01-1.96.748 3.086 3.086 0 00-5.259 2.814 8.76 8.76 0 01-6.36-3.223 3.085 3.085 0 00.955 4.12 3.065 3.065 0 01-1.398-.387v.039a3.087 3.087 0 002.475 3.025 3.074 3.074 0 01-1.393.053 3.09 3.09 0 002.883 2.143 6.193 6.193 0 01-4.57 1.277 8.73 8.73 0 004.731 1.387c5.676 0 8.78-4.702 8.78-8.779 0-.134-.003-.267-.009-.399a6.257 6.257 0 001.54-1.597z" fill="#F1F2F2"/></g></svg>