<svg width="19" height="16" fill="none" xmlns="http://www.w3.org/2000/svg"><g fill="#fff"><path fill-rule="evenodd" clip-rule="evenodd" d="M16.1 1.095l2.083 2.085a.184.184 0 010 .26l-2.084 2.084-9.378 9.379a.186.186 0 01-.13.053H.367a.184.184 0 010-.368h3.954v-1.9c0-.049.02-.096.054-.13l9.378-9.378h.001l2.084-2.085a.19.19 0 01.26 0zm-9.25 9.51l1.824 1.823 7.034-7.034-1.824-1.824-7.034 7.034zm-.336 3.983H4.69v-1.824l1.9-1.9 1.824 1.824-1.9 1.9zM14.145 3.31l1.824 1.823 1.823-1.823-1.823-1.824-1.824 1.824z"/><path d="M18.183 3.18l-.141.141.141-.141zm-2.084-2.085l.142-.141-.142.141zm2.084 2.345l.141.141-.141-.14zm-2.084 2.084l-.142-.142-.058.059v.083h.2zm0 0v.2h.2v-.2h-.2zm0 0v-.2h-.083l-.059.059.142.141zM6.72 14.903l.14.142h.001l-.141-.142zm-2.4-.315v.2h.2v-.2h-.2zm.055-2.03l-.142-.142.142.142zm9.378-9.378l.142.141-.142-.141zm0 0v-.2h-.082l-.059.058.142.141zm.001 0v.2h.083l.058-.06-.141-.14zm2.084-2.085l.141.142-.141-.142zM8.674 12.428l-.141.141.141.141.142-.14-.142-.142zM6.85 10.604l-.141-.141-.141.141.141.142.141-.142zm8.858-5.21l.141.142.142-.142-.142-.141-.141.141zM13.884 3.57l.142-.14-.142-.142-.141.141.141.141zm-7.37 11.018v.2h.083l.058-.059-.141-.14zm-1.824 0h-.2v.2h.2v-.2zm0-1.824l-.141-.141-.059.059v.082h.2zm1.9-1.9l.141-.14-.141-.142-.141.141.14.142zm1.824 1.824l.141.142.141-.142-.141-.141-.141.141zm7.555-7.555l-.142.142.142.141.141-.141-.141-.142zM14.145 3.31l-.141-.142-.142.142.142.141.141-.141zm3.647 0l.142.141.141-.141-.141-.142-.142.142zM15.97 1.486l.141-.141-.141-.142-.142.142.142.141zm2.356 1.552L16.24.954l-.283.283 2.084 2.084.282-.283zm0 .543a.384.384 0 000-.543l-.283.283a.016.016 0 010-.022l.282.282zM16.24 5.665l2.084-2.084-.283-.282-2.084 2.083.283.283zm.059-.14v-.001h-.4.4zm-.2.2v-.4.4zm-9.237 9.32l9.378-9.38-.283-.282L6.58 14.76l.283.283zm-.272.111c.103 0 .2-.04.271-.111l-.28-.284a.015.015 0 01.01-.004v.4zm-6.222 0H6.59v-.4H.368v.4zm-.384-.384c0 .213.172.384.384.384v-.4c.01 0 .016.008.016.016h-.4zm.384-.384a.384.384 0 00-.384.384h.4a.016.016 0 01-.016.016v-.4zm3.954 0H.368v.4h3.954v-.4zm-.2-1.7v1.9h.4v-1.9h-.4zm.112-.272a.384.384 0 00-.112.272h.4a.016.016 0 01-.005.011l-.283-.283zm9.379-9.378l-9.379 9.378.283.283 9.379-9.378-.283-.283zm0 0l.283.283-.283-.283zm.142-.059v.4-.4zM15.697.954l-2.083 2.084.282.283 2.084-2.084-.283-.283zm.544 0a.39.39 0 00-.544 0l.284.282a.028.028 0 01-.01.007.01.01 0 01-.002 0h-.002a.027.027 0 01-.01-.006l.284-.283zM8.816 12.286l-1.824-1.823-.283.283 1.824 1.823.283-.283zm6.75-7.033l-7.033 7.033.283.283 7.033-7.033-.282-.283zm-1.823-1.541l1.824 1.824.282-.283-1.823-1.824-.283.283zm-6.751 7.034l7.034-7.034-.283-.283-7.034 7.034.283.283zm-2.203 4.042h1.725v-.4H4.789v.4zm-.099 0h.1v-.4h-.1v.4zm-.2-2.024v1.824h.4v-1.824h-.4zm1.959-2.04l-1.9 1.899.282.283 1.9-1.9-.282-.283zm2.106 1.823l-1.824-1.824-.282.283 1.823 1.824.283-.283zm-1.9 2.182l1.9-1.9-.283-.282-1.9 1.9.283.283zm9.455-9.737l-1.823-1.824-.283.283 1.823 1.824.283-.283zm1.54-1.824l-1.823 1.824.283.283 1.824-1.824-.283-.283zm-1.823-1.54l1.824 1.823.283-.283-1.824-1.823-.283.282zm-1.54 1.823l1.823-1.824-.283-.282-1.823 1.823.283.283z"/></g></svg>