<svg width="30" height="42" fill="none" xmlns="http://www.w3.org/2000/svg"><mask id="a" maskUnits="userSpaceOnUse" x="0" y="0" width="30" height="42"><path fill-rule="evenodd" clip-rule="evenodd" d="M.007.09h29.99v41.1H.007V.09z" fill="#fff"/></mask><g mask="url(#a)"><path fill-rule="evenodd" clip-rule="evenodd" d="M29.997 40.026V8.596h-5.149c-1.835 0-3.313-1.522-3.313-3.313V.09H1.165C.536.09 0 .627 0 1.254v38.772c0 .627.537 1.164 1.164 1.164h27.714c.627 0 1.12-.537 1.12-1.164zM9.715 21.938c-.268 1.388-1.164 2.418-2.596 2.642l-3.09.09c-.85 0-1.03-.359-1.03-1.165V17.64c0-.716.314-.985.986-.985.985 0 2.686-.09 3.537.134 2.06.538 2.641 3.134 2.193 5.15zm9.044-1.298c0 2.462-1.343 4.163-3.94 4.163-2.552 0-3.94-1.7-3.94-4.163s1.389-4.12 3.896-4.12c2.596-.044 3.984 1.613 3.984 4.12zm8.238 1.477c0 1.03-.85 1.97-1.835 2.418-1.03.448-2.597.358-3.582-.224-2.776-1.657-2.418-7.79 2.06-7.79 1.163 0 2.283.492 2.91 1.343 1.074 1.522-.224 2.104-.717 1.656-.447-.402-.627-1.7-2.149-1.7-2.328 0-2.507 3.133-1.925 4.476.582 1.388 2.194 1.478 3.044.896.985-.672.583-1.746 1.478-1.746.403-.045.716.268.716.671z" fill="#28A845"/></g><path fill-rule="evenodd" clip-rule="evenodd" d="M13.208 22.789c1.119 1.298 3.895.985 3.895-2.15 0-1.521-.672-2.82-2.328-2.82-2.552-.045-2.642 3.671-1.567 4.97zM6.984 23.236c1.523-.537 1.433-3.492.896-4.387-.493-.806-1.209-.896-2.15-.896H4.657v5.463c.627-.045 1.791 0 2.328-.18zM23.46 5.283c0 .761.627 1.388 1.388 1.388h3.761L23.46 1.477v3.806z" fill="#28A845"/></svg>