<svg width="27" height="26" fill="none" xmlns="http://www.w3.org/2000/svg"><g fill-rule="evenodd" clip-rule="evenodd"><path d="M13.034 26c7.018 0 12.708-5.82 12.708-13S20.052 0 13.034 0 .327 5.82.327 13s5.69 13 12.707 13z" fill="#6F3FAA"/><path d="M18.547 7.132c-3.093-.764-6.191-1.658-9.363-.523-2.054.788-2.054 3.064-1.968 4.99 0 .526-.6 1.226-.343 1.839.514 1.75.941 3.501 2.738 4.377.257.175 0 .525.172.788-.086 0-.257.087-.257.175 0 .42.184 1.061.062 1.475l5.46 5.584c5.614-.915 10.001-5.59 10.618-11.422l-7.119-7.283z" fill="#512D84"/><g fill="#fff"><path d="M19.753 9.12l.004.017c.42 1.96.42 3.95 0 5.91l-.005.018c-.339 1.404-1.87 2.91-3.275 3.224l-.016.004a17.87 17.87 0 01-4.437.302l-1.552 1.651c-.385.41-1.06.13-1.06-.436v-1.568c-1.354-.395-2.77-1.833-3.096-3.177l-.004-.017a14.03 14.03 0 010-5.911l.004-.017c.34-1.405 1.87-2.911 3.276-3.225l.016-.003a17.803 17.803 0 016.853 0l.016.003c1.405.314 2.936 1.82 3.276 3.225zm-3.537 7.909c.923-.21 2.085-1.35 2.312-2.266.378-1.772.378-3.57 0-5.342-.226-.916-1.388-2.055-2.312-2.265a16.58 16.58 0 00-6.363 0c-.924.21-2.086 1.349-2.313 2.265a12.731 12.731 0 000 5.342c.227.916 1.39 2.055 2.313 2.266a.089.089 0 01.071.087v2.597c0 .13.155.194.244.1l1.205-1.266 1.134-1.19a.085.085 0 01.064-.027 16.595 16.595 0 003.645-.301z"/><path d="M15.043 15.962c-.142-.044-.277-.074-.403-.127-1.302-.553-2.5-1.266-3.45-2.359-.539-.621-.961-1.323-1.319-2.065-.169-.352-.312-.718-.457-1.082-.133-.331.063-.674.268-.924.193-.234.442-.413.71-.546.21-.103.418-.043.571.139.332.393.636.807.883 1.263.152.281.11.624-.165.815-.067.047-.128.101-.19.153a.631.631 0 00-.143.155.432.432 0 00-.028.372c.34.953.91 1.694 1.848 2.093.15.063.3.138.473.117.29-.034.383-.36.586-.529a.542.542 0 01.665-.03c.214.139.42.287.627.437.202.147.403.291.589.46.18.16.24.373.14.591-.185.402-.454.736-.841.949-.11.06-.24.079-.364.118.124-.039-.142-.044 0 0zM13.038 8.4c1.703.05 3.102 1.206 3.402 2.928.05.294.069.594.092.892.01.125-.06.244-.192.246-.137.001-.198-.116-.207-.24-.018-.249-.03-.498-.063-.744-.177-1.297-1.188-2.371-2.451-2.602-.19-.034-.384-.043-.577-.064-.122-.013-.281-.02-.308-.175-.023-.13.085-.234.205-.24.033-.002.066 0 .099 0-.033 0 1.703.048 0 0z"/><path d="M15.626 11.833c-.003.022-.004.073-.017.121-.045.175-.304.197-.364.02a.538.538 0 01-.02-.168 2.15 2.15 0 00-.261-1.059 1.946 1.946 0 00-.808-.775 2.283 2.283 0 00-.644-.202c-.097-.017-.195-.026-.292-.04-.119-.017-.182-.094-.176-.213.005-.112.085-.192.204-.185.39.022.768.109 1.116.297.706.383 1.11.987 1.228 1.794.005.037.014.073.016.11.007.09.011.18.018.3-.007-.12-.003.022 0 0z"/><path d="M14.567 11.79c-.143.003-.219-.077-.234-.21-.01-.094-.018-.188-.04-.28a.785.785 0 00-.282-.453.733.733 0 00-.23-.113c-.105-.031-.213-.023-.318-.049-.113-.028-.175-.122-.158-.23a.206.206 0 01.216-.169c.66.049 1.132.398 1.2 1.193.005.057.01.116-.002.17-.02.091-.087.137-.152.142.065-.005-.143.002 0 0z"/></g><path d="M19.757 9.137l-.005-.017c-.19-.788-.755-1.607-1.462-2.23l-.956.866c.569.464 1.056 1.106 1.194 1.665.379 1.773.379 3.57 0 5.342-.226.916-1.389 2.055-2.312 2.266a16.595 16.595 0 01-3.645.301.085.085 0 00-.064.027l-1.134 1.19-1.205 1.266c-.089.094-.243.03-.243-.1v-2.597c0-.042-.03-.079-.072-.087-.525-.12-1.127-.54-1.59-1.047l-.945.856c.59.656 1.351 1.187 2.093 1.404v1.568c0 .567.676.846 1.06.436l1.553-1.65a17.654 17.654 0 004.437-.303l.015-.003c1.406-.314 2.937-1.82 3.276-3.225l.005-.017c.42-1.961.42-3.95 0-5.911z" fill="#D1D1D1"/><path d="M15.056 16.002c.16-.077-.185-.087 0 0z" fill="#fff"/><path d="M16.108 14.303c-.186-.168-.388-.312-.59-.459a13.75 13.75 0 00-.626-.437.542.542 0 00-.665.03c-.203.17-.296.495-.586.53-.173.02-.323-.055-.473-.119a3.076 3.076 0 01-1.345-1.094l-.703.637.07.085c.95 1.093 2.148 1.806 3.45 2.359.126.053.261.083.403.127-.142-.044.124-.039 0 0 .124-.039.254-.059.364-.119.388-.213.656-.546.84-.948.102-.219.04-.43-.139-.592z" fill="#D1D1D1"/><g fill="#fff"><path d="M13.07 8.805h-.009c-.003-.002.001 0 .009 0zM13.038 8.803l.004.001c.095.023 1.632.307-.004 0z"/></g><g fill="#D1D1D1"><path d="M15.48 9.437l-.299.272c.471.469.796 1.09.889 1.773.033.246.045.495.063.743.009.125.07.242.207.24.132-.001.201-.12.192-.245-.023-.298-.041-.598-.093-.892a3.525 3.525 0 00-.958-1.891zM15.592 11.423c-.086-.588-.325-1.068-.72-1.434l-.3.271c.155.14.289.306.392.487.182.321.26.69.26 1.059 0 .056.003.116.021.168.06.177.32.155.364-.02.013-.048.014-.1.017-.121-.003.022-.007-.12 0 0-.007-.12-.011-.21-.018-.3-.002-.038-.01-.074-.016-.11z"/></g><g fill="#fff"><path d="M15.653 12.403c-.014-.784-.006.143 0 0zM14.598 12.127c.004-.002.009-.01.013-.01a.428.428 0 00-.05.002c.013.002.024.008.037.008z"/><path d="M14.616 12.127c-.013 0-.024-.006-.036-.008-.06.006-.122.017.036.008z"/><path d="M14.598 12.116c-.004.002-.008.01-.013.01.034-.007.031-.01.013-.01z"/></g><path d="M14.266 10.538l-.304.276a.785.785 0 01.332.487c.021.09.03.185.04.278.014.128.084.206.215.21h.024c.063-.007.126-.052.146-.14.012-.054.007-.114.002-.17-.038-.444-.202-.75-.455-.94z" fill="#D1D1D1"/></g></svg>